<?xml version="1.0" encoding="utf-8"?>
<!-- Generator: Adobe Illustrator 23.0.1, SVG Export Plug-In . SVG Version: 6.00 Build 0)  -->
<svg version="1.1" id="Layer_1" xmlns="http://www.w3.org/2000/svg" xmlns:xlink="http://www.w3.org/1999/xlink" x="0px" y="0px"
	 viewBox="0 0 171.81 69.61"  xml:space="preserve">
<style type="text/css">
	.st0{fill:#5C5958;}
	.st1{fill:#A4A6A8;}
	.st2{fill:#FFFFFF;}
	.st3{fill:#00A2CD;}
	.st4{fill:#DADADB;}
</style>
<g>
	<path class="st0" d="M1.42,43.01h1.22v-6.25c0-0.95,0.11-2.03,0.43-3.04c0.64-2.14,2.06-4.05,4.32-4.05c0.32,0,0.67,0.06,0.67,0.06
		V28.5c0,0-0.41-0.09-0.84-0.09c-2.29,0-3.91,1.83-4.63,4.06H2.52c0,0,0.12-0.52,0.12-1.19v-2.75H1.42V43.01z M8.89,35.8
		c0,4.6,3.39,7.56,7.47,7.56c3.13,0,5.15-2,5.15-2l-0.67-1.01c0,0-1.71,1.82-4.49,1.82c-3.36,0-6.2-2.4-6.2-6.6h11.61
		c0,0,0.06-0.46,0.06-0.78c0-3.5-1.97-6.6-5.91-6.6C12.22,28.19,8.89,30.91,8.89,35.8 M10.25,34.44c0.52-3.39,2.98-5.12,5.65-5.12
		c2.4,0,4.52,1.59,4.66,5.12H10.25z M24.03,41.27c0,0,1.74,2.08,5.24,2.08c2.66,0,4.63-1.59,4.63-3.91c0-4.81-7.96-3.68-7.96-7.44
		c0-1.88,1.62-2.64,3.27-2.64c2.46,0,3.65,1.36,3.65,1.36l0.72-0.99c0,0-1.33-1.56-4.29-1.56c-2.46,0-4.63,1.33-4.63,3.91
		c0,4.72,7.96,3.68,7.96,7.35c0,1.8-1.56,2.72-3.33,2.72c-2.87,0-4.49-1.82-4.49-1.82L24.03,41.27z M36.06,35.69
		c0,4.31,3.36,7.67,7.5,7.67c4.14,0,7.5-3.36,7.5-7.67c0-4.23-3.36-7.5-7.5-7.5C39.42,28.19,36.06,31.46,36.06,35.69 M37.33,35.69
		c0-3.59,2.78-6.31,6.22-6.31c3.45,0,6.23,2.72,6.23,6.31c0,3.68-2.78,6.49-6.23,6.49C40.11,42.17,37.33,39.36,37.33,35.69
		 M54.51,43.01h1.22v-7.06c0-0.7,0.06-1.36,0.23-1.97c0.72-2.69,3.13-4.6,5.85-4.6c3.24,0,3.56,2.38,3.56,4.9v8.74h1.22v-9.18
		c0-3.42-1.01-5.65-4.78-5.65c-3.62,0-5.65,2.72-6.14,4.08h-0.06c0,0,0.11-0.52,0.11-1.19v-2.55h-1.22V43.01z M69.64,39.16
		c0,2.9,2.58,4.2,4.92,4.2c3.76,0,5.1-3.56,5.07-3.56h0.06c0,0-0.11,0.52-0.11,1.3v1.91h1.22v-9.35c0-3.62-1.8-5.47-5.13-5.47
		c-3.16,0-4.89,1.59-4.89,1.59l0.69,0.99c0,0,1.62-1.39,4.14-1.39c2.32,0,3.97,1.1,3.97,4.32v0.49h-0.96
		C76.04,34.18,69.64,34.24,69.64,39.16 M70.91,39.07c0-3.76,5.27-3.76,7.73-3.76h0.93v0.78c0,2.87-1.8,6.14-4.95,6.14
		C72.16,42.23,70.91,40.61,70.91,39.07 M85.05,43.01h1.22v-7.06c0-0.7,0.06-1.36,0.23-1.97c0.73-2.69,3.13-4.6,5.85-4.6
		c3.24,0,3.56,2.38,3.56,4.9v8.74h1.22v-9.18c0-3.42-1.01-5.65-4.78-5.65c-3.62,0-5.65,2.72-6.14,4.08h-0.06
		c0,0,0.12-0.52,0.12-1.19v-2.55h-1.22V43.01z M100.5,35.8c0,4.6,3.39,7.56,7.47,7.56c3.59,0,5.47-2.26,5.47-2.26l-0.64-1.01
		c0,0-1.65,2.08-4.84,2.08c-3.39,0-6.2-2.52-6.2-6.37c0-3.91,2.81-6.43,6.2-6.43c2.78,0,4.43,1.85,4.43,1.85l0.75-0.98
		c0,0-1.74-2.06-5.18-2.06C103.95,28.19,100.5,31.2,100.5,35.8 M115.09,35.8c0,4.6,3.39,7.56,7.47,7.56c3.13,0,5.15-2,5.15-2
		l-0.67-1.01c0,0-1.71,1.82-4.49,1.82c-3.36,0-6.2-2.4-6.2-6.6h11.61c0,0,0.06-0.46,0.06-0.78c0-3.5-1.97-6.6-5.91-6.6
		C118.42,28.19,115.09,30.91,115.09,35.8 M116.45,34.44c0.52-3.39,2.98-5.12,5.65-5.12c2.4,0,4.52,1.59,4.66,5.12H116.45z"/>
</g>
<polygon class="st1" points="126.21,1.38 116.74,9.12 118.54,20.99 129.82,25.13 139.29,17.4 137.48,5.52 "/>
<polygon class="st2" points="145.47,44.46 134.2,40.32 132.4,28.46 141.86,20.73 153.13,24.86 154.93,36.73 "/>
<path class="st1" d="M145.51,44.74l-0.13-0.05l-11.41-4.19l-1.85-12.15l9.68-7.91l11.54,4.24l1.85,12.15L145.51,44.74z
	 M134.43,40.14l10.99,4.04l9.24-7.55l-1.76-11.58l-11-4.04l-9.24,7.55L134.43,40.14z"/>
<polygon class="st3" points="147.98,47.88 149.88,59.74 161.19,63.79 170.6,55.98 168.7,44.12 157.39,40.07 "/>
<polygon class="st4" points="123.35,51.86 125.39,63.91 136.61,68.21 145.78,60.46 143.73,48.4 132.52,44.1 "/>
</svg>
