<svg width="661" height="470" viewBox="0 0 661 470" xmlns="http://www.w3.org/2000/svg" xmlns:xlink="http://www.w3.org/1999/xlink"><defs><filter x="-2.6%" y="-1.2%" width="103.5%" height="102.5%" filterUnits="objectBoundingBox" id="a"><feOffset dx="-4" in="SourceAlpha" result="shadowOffsetOuter1"/><feGaussianBlur stdDeviation="2" in="shadowOffsetOuter1" result="shadowBlurOuter1"/><feComposite in="shadowBlurOuter1" in2="SourceAlpha" operator="out" result="shadowBlurOuter1"/><feColorMatrix values="0 0 0 0 0 0 0 0 0 0 0 0 0 0 0 0 0 0 0.22 0" in="shadowBlurOuter1"/></filter><filter x="-3.5%" y="-1.8%" width="105.2%" height="103.7%" filterUnits="objectBoundingBox" id="c"><feGaussianBlur stdDeviation="5" in="SourceAlpha" result="shadowBlurInner1"/><feOffset dx="6" in="shadowBlurInner1" result="shadowOffsetInner1"/><feComposite in="shadowOffsetInner1" in2="SourceAlpha" operator="arithmetic" k2="-1" k3="1" result="shadowInnerInner1"/><feColorMatrix values="0 0 0 0 0.899739583 0 0 0 0 0.899739583 0 0 0 0 0.899739583 0 0 0 1 0" in="shadowInnerInner1"/></filter><filter x="-6.1%" y="-13.5%" width="112.2%" height="137.8%" filterUnits="objectBoundingBox" id="f"><feOffset dy="1" in="SourceAlpha" result="shadowOffsetOuter1"/><feGaussianBlur stdDeviation="1" in="shadowOffsetOuter1" result="shadowBlurOuter1"/><feColorMatrix values="0 0 0 0 0.39368091 0 0 0 0 0.39368091 0 0 0 0 0.39368091 0 0 0 0.5 0" in="shadowBlurOuter1"/></filter><filter x="-1.9%" y="-2.9%" width="103.7%" height="107.3%" filterUnits="objectBoundingBox" id="h"><feOffset dy="1" in="SourceAlpha" result="shadowOffsetOuter1"/><feGaussianBlur stdDeviation="1.5" in="shadowOffsetOuter1" result="shadowBlurOuter1"/><feColorMatrix values="0 0 0 0 0 0 0 0 0 0 0 0 0 0 0 0 0 0 0.02 0" in="shadowBlurOuter1"/></filter><rect id="g" x="0" y="0" width="57.365" height="18.505" rx="1.48"/><rect id="i" x="0" y="20.725" width="269.801" height="136.936" rx="2.221"/><path d="M96.76-50.812c0-24.753 20.068-44.819 44.832-44.819H512.93c24.76 0 44.832 20.079 44.832 44.819V512.55c0 24.753-20.068 44.819-44.832 44.819H141.592c-24.76 0-44.831-20.079-44.831-44.819V-50.812z" id="b"/><path d="M60.76 18.603a5.231 5.231 0 015.223-5.234h521.555a5.223 5.223 0 015.223 5.234v423.532a5.231 5.231 0 01-5.223 5.234H65.983a5.223 5.223 0 01-5.222-5.234V18.603z" id="d"/></defs><g transform="translate(3)" fill="none" fill-rule="evenodd"><g transform="rotate(-90 327.26 230.869)"><use fill="#000" filter="url(#a)" xlink:href="#b"/><use fill="#FFF" xlink:href="#b"/><use fill="#000" filter="url(#c)" xlink:href="#b"/><path stroke="#F0F0F0" stroke-width="1.345" d="M97.433-50.812V512.55c0 24.373 19.775 44.147 44.16 44.147h371.336c24.391 0 44.16-19.764 44.16-44.147V-50.812c0-24.373-19.776-44.147-44.16-44.147H141.592c-24.39 0-44.159 19.764-44.159 44.147z" stroke-linejoin="square"/></g><mask id="e" fill="#fff"><use xlink:href="#d"/></mask><path stroke="#EFF1F5" stroke-width="2" d="M59.76 18.603c0-3.441 2.79-6.234 6.223-6.234h521.555a6.223 6.223 0 016.223 6.234v423.532c0 3.441-2.789 6.234-6.223 6.234H65.983a6.223 6.223 0 01-6.222-6.234V18.603z"/><g mask="url(#e)"><g transform="translate(390.497 7.059)"><path fill="#9355DE" d="M202.443.136v441H9.623v-441z"/><text font-family="SourceSansPro-Regular, Source Sans Pro" font-size="8.142" letter-spacing=".081" fill="#D8D8D8"><tspan x="24.796" y="331.668">Get the legal agreement signed and allow for </tspan> <tspan x="24.796" y="341.661">new funders to be added automatically</tspan></text><text font-family="SourceSansPro-Regular, Source Sans Pro" font-size="10.363" letter-spacing=".104" fill="#D8D8D8" fill-opacity=".9"><tspan x="24.796" y="317.754">Signature and Launch</tspan></text><circle fill="#1CB8C4" cx="9.252" cy="315.526" r="9.252"/><text font-family="SourceSansPro-Semibold, Source Sans Pro" font-size="11.103" font-weight="500" fill="#D8D8D8"><tspan x="6.292" y="319.494">5</tspan></text><text font-family="SourceSansPro-Regular, Source Sans Pro" font-size="8.142" letter-spacing=".081" fill="#D8D8D8"><tspan x="24.796" y="260.98">Drag and drop clauses to form the legal </tspan> <tspan x="24.796" y="270.972">agreement with all entities fast and easy</tspan></text><text font-family="SourceSansPro-Regular, Source Sans Pro" font-size="10.363" letter-spacing=".104" fill="#D8D8D8" fill-opacity=".9"><tspan x="24.796" y="246.695">Legal Agreement</tspan></text><circle fill="#1CB8C4" cx="9.252" cy="244.838" r="9.252"/><text font-family="SourceSansPro-Semibold, Source Sans Pro" font-size="11.103" font-weight="500" fill="#D8D8D8"><tspan x="6.292" y="248.806">4</tspan></text><text font-family="SourceSansPro-Semibold, Source Sans Pro" font-size="8.882" font-weight="500" letter-spacing=".089" fill="#FFF"><tspan x="25.167" y="191.291">Define the project’s outcomes and </tspan> <tspan x="25.167" y="201.284">outputs, their costs and beneficiaries</tspan></text><text font-family="SourceSansPro-Bold, Source Sans Pro" font-size="11.103" font-weight="bold" letter-spacing=".111" fill="#FFF"><tspan x="25.167" y="177.007">Project Outcomes</tspan></text><circle fill="#1CB8C4" cx="9.623" cy="174.889" r="9.252"/><text font-family="SourceSansPro-Bold, Source Sans Pro" font-size="11.103" font-weight="bold" fill="#FFF"><tspan x="6.662" y="178.857">3</tspan></text><text font-family="SourceSansPro-Regular, Source Sans Pro" font-size="8.142" letter-spacing=".081" fill="#D8D8D8"><tspan x="25.537" y="120.343">Create secure identification and define </tspan> <tspan x="25.537" y="130.336">outcomes for every beneficiary</tspan></text><text font-family="SourceSansPro-Regular, Source Sans Pro" font-size="10.363" letter-spacing=".104" fill="#D8D8D8" fill-opacity=".9"><tspan x="25.537" y="106.059">Beneficiaries</tspan></text><circle fill="#9355DE" cx="9.993" cy="104.571" r="9.252"/><path d="M9.417 107.941c-.433.44-1.133.44-1.565 0l-2.347-2.389a1.142 1.142 0 010-1.592 1.091 1.091 0 011.564 0l1.566 1.592 3.91-3.982a1.091 1.091 0 011.564 0 1.14 1.14 0 010 1.593l-4.692 4.778z" fill="#FFF"/><text font-family="SourceSansPro-Regular, Source Sans Pro" font-size="8.142" letter-spacing=".081" fill="#D8D8D8"><tspan x="25.167" y="50.024">Define the project’s commissioner, service </tspan> <tspan x="25.167" y="60.017">provider, validator and their payment terms</tspan></text><text font-family="SourceSansPro-Regular, Source Sans Pro" font-size="10.363" letter-spacing=".104" fill="#D8D8D8" fill-opacity=".9"><tspan x="25.167" y="35.74">Entities Involved</tspan></text><circle fill="#9355DE" cx="9.993" cy="34.252" r="9.252"/><path d="M9.417 37.623c-.433.44-1.133.44-1.565 0l-2.347-2.39a1.142 1.142 0 010-1.592 1.091 1.091 0 011.564 0l1.566 1.593 3.91-3.982a1.091 1.091 0 011.564 0 1.14 1.14 0 010 1.593l-4.692 4.778z" fill="#FFF"/></g><g transform="translate(299.847 405.486)"><use fill="#000" filter="url(#f)" xlink:href="#g"/><use fill="#1CB8C4" xlink:href="#g"/></g><path stroke="#FFF" stroke-width="1.11" stroke-linecap="round" stroke-linejoin="round" d="M347.96 412.148l3.33 3.146-3.33 3.146"/><text font-family="SourceSansPro-Semibold, Source Sans Pro" font-size="8.882" font-weight="500" letter-spacing=".219" fill="#FFF" transform="translate(299.847 405.486)"><tspan x="6.292" y="12.331">Next step</tspan></text><text fill="#1CB8C4" font-family="SourceSansPro-Regular, Source Sans Pro" font-size="8.882" transform="translate(222.867 408.817)"><tspan x="6.771" y="9">Previous step</tspan></text><path stroke="#1CB8C4" stroke-width="1.11" stroke-linecap="round" stroke-linejoin="round" d="M226.198 417.7l-3.33-3.146 3.33-3.146"/><text font-family="SourceSansPro-Semibold, Source Sans Pro" font-size="8.882" font-weight="500" fill="#1CB8C4" transform="translate(87.412 35.02)"><tspan x="0" y="380.947">Save</tspan></text><path d="M88.522 388.462h268.69" stroke="#979797" stroke-width=".5" stroke-linecap="square"/><text font-family="SourceSansPro-Regular, Source Sans Pro" font-size="11.843" fill="#1CB8C4" transform="translate(87.412 35.02)"><tspan x="4.811" y="341.756">+</tspan> <tspan x="10.697" y="341.756" font-size="9.623"> </tspan> <tspan x="12.641" y="341.756" font-size="8.882">Add outcome</tspan></text><use filter="url(#h)" xlink:href="#i" fill="#000" transform="translate(87.412 199.713)"/><text font-family="SourceSansPro-Regular, Source Sans Pro" font-size="7.402" fill="#1CB8C4" transform="translate(93.333 284.835)"><tspan x="0" y="59.554">+ Add output</tspan></text><g font-family="SourceSansPro-Regular, Source Sans Pro"><text font-size="6.662" fill="#979899" text-decoration="underline" transform="translate(94.443 321.104)"><tspan x="232.81" y="8.11">Edit</tspan></text><text font-size="6.662" fill="#1CB8C4" transform="translate(94.443 321.104)"><tspan x="199.482" y="8.11">Secure IDs</tspan></text><text font-size="7.402" fill="#4A4A4A" transform="translate(94.443 321.104)"><tspan x="186.529" y="7">35</tspan></text><text font-size="7.402" fill="#4A4A4A" transform="translate(94.443 321.104)"><tspan x="114.73" y="7">£2,000</tspan></text><text font-size="7.402" fill="#4A4A4A" transform="translate(94.443 321.104)"><tspan x="0" y="7">Offer childcare vouchers</tspan></text></g><g font-family="SourceSansPro-Regular, Source Sans Pro"><text font-size="6.662" fill="#979899" text-decoration="underline" transform="translate(93.333 304.82)"><tspan x="233.92" y="9.961">Edit</tspan></text><text font-size="6.662" fill="#1CB8C4" transform="translate(93.333 304.82)"><tspan x="199.852" y="10.331">Secure IDs</tspan></text><text font-size="7.402" fill="#4A4A4A" transform="translate(93.333 304.82)"><tspan x="187.639" y="9.591">45</tspan></text><text font-size="7.402" fill="#4A4A4A" transform="translate(93.333 304.82)"><tspan x="115.84" y="7">£700</tspan></text><text font-size="7.402" fill="#4A4A4A" transform="translate(93.333 304.82)"><tspan x="0" y="7">Offer job training</tspan></text></g><g fill="#414141" font-family="SourceSansPro-Regular, Source Sans Pro" font-size="7.402"><text transform="translate(94.443 284.835)"><tspan x="180.237" y="7">NO OF PEOPLE TO HELP</tspan></text><text transform="translate(94.443 284.835)"><tspan x="101.777" y="7">COST/PERSON</tspan></text><text transform="translate(94.443 284.835)"><tspan x="0" y="7">ACTIONS</tspan></text></g><path d="M94.629 298.343h256.847" stroke="#979797" stroke-width=".5" stroke-linecap="square"/><g fill="#4A4A4A"><text font-family="SourceSansPro-Semibold, Source Sans Pro" font-size="8.882" font-weight="500" transform="translate(280.232 230.06)"><tspan x="13.694" y="21.213">£110,500</tspan></text><text font-family="SourceSansPro-Regular, Source Sans Pro" font-size="7.402" transform="translate(280.232 230.06)"><tspan x="0" y="7">TOTAL GOAL COST</tspan></text></g><text font-family="SourceSansPro-Regular, Source Sans Pro" font-size="8.142" fill="#979899" text-decoration="underline" transform="translate(87.412 199.713)"><tspan x="4.711" y="65.735">Edit</tspan></text><text font-family="SourceSansPro-Semibold, Source Sans Pro" font-size="8.882" font-weight="500" letter-spacing="-.099" fill="#4A4A4A" transform="translate(87.412 199.713)"><tspan x="5.181" y="39.348">Find employment within 8 months of </tspan> <tspan x="5.181" y="50.348">moving in</tspan></text><text font-family="SourceSansPro-Regular, Source Sans Pro" font-size="10.363" fill="#9355DE" transform="translate(87.412 199.713)"><tspan x=".74" y="10">GOAL 1</tspan></text><g font-family="SourceSansPro-Regular, Source Sans Pro"><text font-size="8.142" fill="#979899" text-decoration="underline" transform="translate(87.412 130.875)"><tspan x="229.73" y="32.056">Edit</tspan></text><text font-size="8.882" letter-spacing="-.111" fill="#4A4A4A" transform="translate(87.412 130.875)"><tspan x=".37" y="27.505">The Real Lettings Fund aims to empower its tenants to have a</tspan> <tspan x=".37" y="40.725">positive move on to independent housing within 24 months</tspan></text><text font-size="10.363" fill="#9355DE" transform="translate(87.412 130.875)"><tspan x=".74" y="10">PROJECT DESCRIPTION</tspan></text></g><g font-family="SourceSansPro-Regular, Source Sans Pro"><text font-size="8.142" fill="#979899" text-decoration="underline" transform="translate(87.412 73.51)"><tspan x="229.36" y="26.135">Edit</tspan></text><text font-size="8.882" letter-spacing="-.111" fill="#4A4A4A" transform="translate(87.412 73.51)"><tspan x=".74" y="27.505">Save 50 people from becoming homeless</tspan></text><text font-size="10.363" fill="#9355DE" transform="translate(87.412 73.51)"><tspan x=".74" y="10">PROJECT TITLE</tspan></text></g><text font-family="SourceSansPro-Regular, Source Sans Pro" font-size="11.843" fill="#9355DE" transform="translate(87.412 35.02)"><tspan x=".74" y="12">Defining your project’s outcomes</tspan></text></g></g></svg>