<svg width="661" height="470" viewBox="0 0 661 470" xmlns="http://www.w3.org/2000/svg" xmlns:xlink="http://www.w3.org/1999/xlink"><defs><filter x="-3.9%" y="-51.8%" width="107.5%" height="205.2%" filterUnits="objectBoundingBox" id="E"><feMorphology radius="1" operator="dilate" in="SourceAlpha" result="shadowSpreadOuter1"/><feOffset in="shadowSpreadOuter1" result="shadowOffsetOuter1"/><feMorphology radius="1" in="SourceAlpha" result="shadowInner"/><feOffset in="shadowInner" result="shadowInner"/><feComposite in="shadowOffsetOuter1" in2="shadowInner" operator="out" result="shadowOffsetOuter1"/><feGaussianBlur stdDeviation="1.5" in="shadowOffsetOuter1" result="shadowBlurOuter1"/><feColorMatrix values="0 0 0 0 0.611764706 0 0 0 0 0.388235294 0 0 0 0 0.882352941 0 0 0 0.4 0" in="shadowBlurOuter1"/></filter><filter x="-69.4%" y="-69.2%" width="238.7%" height="238.3%" filterUnits="objectBoundingBox" id="s"><feOffset in="SourceAlpha" result="shadowOffsetOuter1"/><feGaussianBlur stdDeviation="1.5" in="shadowOffsetOuter1" result="shadowBlurOuter1"/><feColorMatrix values="0 0 0 0 0 0 0 0 0 0 0 0 0 0 0 0 0 0 0.5 0" in="shadowBlurOuter1"/></filter><filter x="-69.4%" y="-69.2%" width="238.7%" height="238.3%" filterUnits="objectBoundingBox" id="j"><feOffset in="SourceAlpha" result="shadowOffsetOuter1"/><feGaussianBlur stdDeviation="1.5" in="shadowOffsetOuter1" result="shadowBlurOuter1"/><feColorMatrix values="0 0 0 0 0 0 0 0 0 0 0 0 0 0 0 0 0 0 0.5 0" in="shadowBlurOuter1"/></filter><filter x="-67.2%" y="-67%" width="234.3%" height="234.1%" filterUnits="objectBoundingBox" id="M"><feOffset in="SourceAlpha" result="shadowOffsetOuter1"/><feGaussianBlur stdDeviation="1.5" in="shadowOffsetOuter1" result="shadowBlurOuter1"/><feColorMatrix values="0 0 0 0 0 0 0 0 0 0 0 0 0 0 0 0 0 0 0.5 0" in="shadowBlurOuter1"/></filter><filter x="-69.4%" y="-69.2%" width="238.7%" height="238.3%" filterUnits="objectBoundingBox" id="l"><feOffset in="SourceAlpha" result="shadowOffsetOuter1"/><feGaussianBlur stdDeviation="1.5" in="shadowOffsetOuter1" result="shadowBlurOuter1"/><feColorMatrix values="0 0 0 0 0 0 0 0 0 0 0 0 0 0 0 0 0 0 0.5 0" in="shadowBlurOuter1"/></filter><filter x="-50%" y="-50%" width="193.3%" height="193.3%" filterUnits="objectBoundingBox" id="n"><feOffset dy="1" in="SourceAlpha" result="shadowOffsetOuter1"/><feGaussianBlur stdDeviation="1" in="shadowOffsetOuter1" result="shadowBlurOuter1"/><feColorMatrix values="0 0 0 0 0 0 0 0 0 0 0 0 0 0 0 0 0 0 0.5 0" in="shadowBlurOuter1" result="shadowMatrixOuter1"/><feMerge><feMergeNode in="shadowMatrixOuter1"/><feMergeNode in="SourceGraphic"/></feMerge></filter><filter x="-67.2%" y="-67%" width="234.3%" height="234.1%" filterUnits="objectBoundingBox" id="K"><feOffset in="SourceAlpha" result="shadowOffsetOuter1"/><feGaussianBlur stdDeviation="1.5" in="shadowOffsetOuter1" result="shadowBlurOuter1"/><feColorMatrix values="0 0 0 0 0 0 0 0 0 0 0 0 0 0 0 0 0 0 0.5 0" in="shadowBlurOuter1"/></filter><filter x="-69.4%" y="-69.2%" width="238.7%" height="238.3%" filterUnits="objectBoundingBox" id="o"><feOffset in="SourceAlpha" result="shadowOffsetOuter1"/><feGaussianBlur stdDeviation="1.5" in="shadowOffsetOuter1" result="shadowBlurOuter1"/><feColorMatrix values="0 0 0 0 0 0 0 0 0 0 0 0 0 0 0 0 0 0 0.5 0" in="shadowBlurOuter1"/></filter><filter x="-4.2%" y="-12.5%" width="108.4%" height="135%" filterUnits="objectBoundingBox" id="U"><feOffset dy="1" in="SourceAlpha" result="shadowOffsetOuter1"/><feGaussianBlur stdDeviation="1" in="shadowOffsetOuter1" result="shadowBlurOuter1"/><feColorMatrix values="0 0 0 0 0.392156863 0 0 0 0 0.392156863 0 0 0 0 0.392156863 0 0 0 0.5 0" in="shadowBlurOuter1"/></filter><filter x="-69.4%" y="-69.2%" width="238.7%" height="238.3%" filterUnits="objectBoundingBox" id="f"><feOffset in="SourceAlpha" result="shadowOffsetOuter1"/><feGaussianBlur stdDeviation="1.5" in="shadowOffsetOuter1" result="shadowBlurOuter1"/><feColorMatrix values="0 0 0 0 0 0 0 0 0 0 0 0 0 0 0 0 0 0 0.5 0" in="shadowBlurOuter1"/></filter><filter x="-36.5%" y="-26%" width="172.9%" height="172.9%" filterUnits="objectBoundingBox" id="Q"><feOffset dy="1" in="SourceAlpha" result="shadowOffsetOuter1"/><feGaussianBlur stdDeviation="1" in="shadowOffsetOuter1" result="shadowBlurOuter1"/><feColorMatrix values="0 0 0 0 0.611764706 0 0 0 0 0.388235294 0 0 0 0 0.882352941 0 0 0 0.4 0" in="shadowBlurOuter1"/></filter><filter x="-69.4%" y="-69.2%" width="238.7%" height="238.3%" filterUnits="objectBoundingBox" id="h"><feOffset in="SourceAlpha" result="shadowOffsetOuter1"/><feGaussianBlur stdDeviation="1.5" in="shadowOffsetOuter1" result="shadowBlurOuter1"/><feColorMatrix values="0 0 0 0 0 0 0 0 0 0 0 0 0 0 0 0 0 0 0.5 0" in="shadowBlurOuter1"/></filter><filter x="-67.2%" y="-67%" width="234.3%" height="234.1%" filterUnits="objectBoundingBox" id="O"><feOffset in="SourceAlpha" result="shadowOffsetOuter1"/><feGaussianBlur stdDeviation="1.5" in="shadowOffsetOuter1" result="shadowBlurOuter1"/><feColorMatrix values="0 0 0 0 0 0 0 0 0 0 0 0 0 0 0 0 0 0 0.5 0" in="shadowBlurOuter1"/></filter><filter x="-69.4%" y="-69.2%" width="238.7%" height="238.3%" filterUnits="objectBoundingBox" id="u"><feOffset in="SourceAlpha" result="shadowOffsetOuter1"/><feGaussianBlur stdDeviation="1.5" in="shadowOffsetOuter1" result="shadowBlurOuter1"/><feColorMatrix values="0 0 0 0 0 0 0 0 0 0 0 0 0 0 0 0 0 0 0.5 0" in="shadowBlurOuter1"/></filter><filter x="-69.4%" y="-69.2%" width="238.7%" height="238.3%" filterUnits="objectBoundingBox" id="C"><feOffset in="SourceAlpha" result="shadowOffsetOuter1"/><feGaussianBlur stdDeviation="1.5" in="shadowOffsetOuter1" result="shadowBlurOuter1"/><feColorMatrix values="0 0 0 0 0 0 0 0 0 0 0 0 0 0 0 0 0 0 0.5 0" in="shadowBlurOuter1"/></filter><filter x="-3.5%" y="-1.8%" width="105.2%" height="103.7%" filterUnits="objectBoundingBox" id="c"><feGaussianBlur stdDeviation="5" in="SourceAlpha" result="shadowBlurInner1"/><feOffset dx="6" in="shadowBlurInner1" result="shadowOffsetInner1"/><feComposite in="shadowOffsetInner1" in2="SourceAlpha" operator="arithmetic" k2="-1" k3="1" result="shadowInnerInner1"/><feColorMatrix values="0 0 0 0 0.899739583 0 0 0 0 0.899739583 0 0 0 0 0.899739583 0 0 0 1 0" in="shadowInnerInner1"/></filter><filter x="-69.4%" y="-69.2%" width="238.7%" height="238.3%" filterUnits="objectBoundingBox" id="A"><feOffset in="SourceAlpha" result="shadowOffsetOuter1"/><feGaussianBlur stdDeviation="1.5" in="shadowOffsetOuter1" result="shadowBlurOuter1"/><feColorMatrix values="0 0 0 0 0 0 0 0 0 0 0 0 0 0 0 0 0 0 0.5 0" in="shadowBlurOuter1"/></filter><filter x="-2.6%" y="-1.2%" width="103.5%" height="102.5%" filterUnits="objectBoundingBox" id="a"><feOffset dx="-4" in="SourceAlpha" result="shadowOffsetOuter1"/><feGaussianBlur stdDeviation="2" in="shadowOffsetOuter1" result="shadowBlurOuter1"/><feComposite in="shadowBlurOuter1" in2="SourceAlpha" operator="out" result="shadowBlurOuter1"/><feColorMatrix values="0 0 0 0 0 0 0 0 0 0 0 0 0 0 0 0 0 0 0.22 0" in="shadowBlurOuter1"/></filter><filter x="-36.5%" y="-26%" width="172.9%" height="172.9%" filterUnits="objectBoundingBox" id="S"><feOffset dy="1" in="SourceAlpha" result="shadowOffsetOuter1"/><feGaussianBlur stdDeviation="1" in="shadowOffsetOuter1" result="shadowBlurOuter1"/><feColorMatrix values="0 0 0 0 0.0980392157 0 0 0 0 0.596078431 0 0 0 0 0.635294118 0 0 0 1 0" in="shadowBlurOuter1"/></filter><filter x="-69.4%" y="-69.2%" width="238.7%" height="238.3%" filterUnits="objectBoundingBox" id="y"><feOffset in="SourceAlpha" result="shadowOffsetOuter1"/><feGaussianBlur stdDeviation="1.5" in="shadowOffsetOuter1" result="shadowBlurOuter1"/><feColorMatrix values="0 0 0 0 0 0 0 0 0 0 0 0 0 0 0 0 0 0 0.5 0" in="shadowBlurOuter1"/></filter><filter x="-69.4%" y="-69.2%" width="238.7%" height="238.3%" filterUnits="objectBoundingBox" id="w"><feOffset in="SourceAlpha" result="shadowOffsetOuter1"/><feGaussianBlur stdDeviation="1.5" in="shadowOffsetOuter1" result="shadowBlurOuter1"/><feColorMatrix values="0 0 0 0 0 0 0 0 0 0 0 0 0 0 0 0 0 0 0.5 0" in="shadowBlurOuter1"/></filter><filter x="-67.2%" y="-67%" width="234.3%" height="234.1%" filterUnits="objectBoundingBox" id="I"><feOffset in="SourceAlpha" result="shadowOffsetOuter1"/><feGaussianBlur stdDeviation="1.5" in="shadowOffsetOuter1" result="shadowBlurOuter1"/><feColorMatrix values="0 0 0 0 0 0 0 0 0 0 0 0 0 0 0 0 0 0 0.5 0" in="shadowBlurOuter1"/></filter><filter x="-69.4%" y="-69.2%" width="238.7%" height="238.3%" filterUnits="objectBoundingBox" id="q"><feOffset in="SourceAlpha" result="shadowOffsetOuter1"/><feGaussianBlur stdDeviation="1.5" in="shadowOffsetOuter1" result="shadowBlurOuter1"/><feColorMatrix values="0 0 0 0 0 0 0 0 0 0 0 0 0 0 0 0 0 0 0.5 0" in="shadowBlurOuter1"/></filter><filter x="-67.2%" y="-67%" width="234.3%" height="234.1%" filterUnits="objectBoundingBox" id="G"><feOffset in="SourceAlpha" result="shadowOffsetOuter1"/><feGaussianBlur stdDeviation="1.5" in="shadowOffsetOuter1" result="shadowBlurOuter1"/><feColorMatrix values="0 0 0 0 0 0 0 0 0 0 0 0 0 0 0 0 0 0 0.5 0" in="shadowBlurOuter1"/></filter><ellipse id="B" cx="375.719" cy="36.934" rx="3.244" ry="3.253"/><ellipse id="D" cx="412.045" cy="3.253" rx="3.244" ry="3.253"/><ellipse id="x" cx="302.064" cy="13.587" rx="3.244" ry="3.253"/><ellipse id="v" cx="262.755" cy="55.306" rx="3.244" ry="3.253"/><ellipse id="H" cx="37.35" cy="14.956" rx="3.35" ry="3.356"/><ellipse id="t" cx="227.263" cy="50.713" rx="3.244" ry="3.253"/><ellipse id="J" cx="3.35" cy="14.556" rx="3.35" ry="3.356"/><ellipse id="r" cx="192.916" cy="33.872" rx="3.244" ry="3.253"/><ellipse id="z" cx="338.319" cy="39.231" rx="3.244" ry="3.253"/><ellipse id="p" cx="7.216" cy="7.619" rx="3.244" ry="3.253"/><ellipse id="N" cx="115.35" cy="8.556" rx="3.35" ry="3.356"/><ellipse id="m" cx="118.498" cy="79.802" rx="3.244" ry="3.253"/><ellipse id="P" cx="7.45" cy="7.463" rx="3.35" ry="3.356"/><ellipse id="k" cx="82.624" cy="58.368" rx="3.244" ry="3.253"/><ellipse id="i" cx="40.644" cy="66.789" rx="3.244" ry="3.253"/><ellipse id="g" cx="3.244" cy="94.346" rx="3.244" ry="3.253"/><ellipse id="L" cx="78.15" cy="15.356" rx="3.35" ry="3.356"/><path d="M15.2 0c8.395 0 15.2 6.805 15.2 15.2s-6.805 15.2-15.2 15.2S0 23.595 0 15.2 6.805 0 15.2 0zm0 2.278C8.063 2.278 2.278 8.063 2.278 15.2c0 7.137 5.785 12.922 12.922 12.922 7.137 0 12.922-5.785 12.922-12.922 0-7.137-5.785-12.922-12.922-12.922z" id="W"/><path d="M4.8 117.083c2.978-5.1 12.087-3.324 17.4-3 8.696.53 15.587 2.564 30.8 4.2 14.145 1.52 14.966 2 47.6-5.8 32.41-5.078 56.4-3 56.4-3" id="F"/><path d="M60.76 18.603a5.231 5.231 0 015.223-5.234h521.555a5.223 5.223 0 015.223 5.234v423.532a5.231 5.231 0 01-5.223 5.234H65.983a5.223 5.223 0 01-5.222-5.234V18.603z" id="d"/><path d="M96.76-50.812c0-24.753 20.068-44.819 44.832-44.819H512.93c24.76 0 44.832 20.079 44.832 44.819V512.55c0 24.753-20.068 44.819-44.832 44.819H141.592c-24.76 0-44.831-20.079-44.831-44.819V-50.812z" id="b"/><path d="M15.2 0c8.395 0 15.2 6.805 15.2 15.2s-6.805 15.2-15.2 15.2S0 23.595 0 15.2 6.805 0 15.2 0zm0 2.278C8.063 2.278 2.278 8.063 2.278 15.2c0 7.137 5.785 12.922 12.922 12.922 7.137 0 12.922-5.785 12.922-12.922 0-7.137-5.785-12.922-12.922-12.922z" id="Y"/><circle id="T" cx="4.8" cy="8.4" r="4.8"/><circle id="R" cx="4.8" cy="8" r="4.8"/><rect id="V" x="0" y="0" width="83.6" height="20" rx="1.6"/></defs><g transform="translate(3)" fill="none" fill-rule="evenodd"><g transform="rotate(-90 327.26 230.869)"><use fill="#000" filter="url(#a)" xlink:href="#b"/><use fill="#FFF" xlink:href="#b"/><use fill="#000" filter="url(#c)" xlink:href="#b"/><path stroke="#F0F0F0" stroke-width="1.345" d="M97.433-50.812V512.55c0 24.373 19.775 44.147 44.16 44.147h371.336c24.391 0 44.16-19.764 44.16-44.147V-50.812c0-24.373-19.776-44.147-44.16-44.147H141.592c-24.39 0-44.159 19.764-44.159 44.147z" stroke-linejoin="square"/></g><mask id="e" fill="#fff"><use xlink:href="#d"/></mask><path stroke="#EFF1F5" stroke-width="2" d="M59.76 18.603c0-3.441 2.79-6.234 6.223-6.234h521.555a6.223 6.223 0 016.223 6.234v423.532c0 3.441-2.789 6.234-6.223 6.234H65.983a6.223 6.223 0 01-6.222-6.234V18.603z"/><g mask="url(#e)"><path fill="#FFF" d="M27 3.2h576v447.2H27z"/><path d="M128.2 343.2s23.674-45.69 55.218-20.872c31.545 24.818 24.796-80.36 45.1-5.754 16.224 30.572 50.232-10.337 56.55-15.147 60.33-45.937 35.41 3.257 95.976 4.09 13.46-.833 37.34-43.196 45.468-44.574 20.574-3.488 18.666 30.815 47.86 28.257 68.784-5.782 62.903-37.09 62.903-37.09l-2.013-.11" stroke="#1998A2" stroke-width="2"/><g transform="translate(125 247.6)"><use fill="#000" filter="url(#f)" xlink:href="#g"/><use fill="#1998A2" xlink:href="#g"/></g><g transform="translate(125 247.6)"><use fill="#000" filter="url(#h)" xlink:href="#i"/><use fill="#1998A2" xlink:href="#i"/></g><g transform="translate(125 247.6)"><use fill="#000" filter="url(#j)" xlink:href="#k"/><use fill="#1998A2" xlink:href="#k"/></g><g transform="translate(125 247.6)"><use fill="#000" filter="url(#l)" xlink:href="#m"/><use fill="#1998A2" xlink:href="#m"/></g><g filter="url(#n)" transform="translate(273.074 295.443)"><use fill="#000" filter="url(#o)" xlink:href="#p"/><use fill="#1998A2" xlink:href="#p"/><ellipse stroke-opacity=".9" stroke="#4A4A4A" stroke-width="1.2" cx="7.158" cy="7.307" rx="7.06" ry="7.08"/></g><g transform="translate(125 247.6)"><use fill="#000" filter="url(#q)" xlink:href="#r"/><use fill="#1998A2" xlink:href="#r"/></g><g transform="translate(125 247.6)"><use fill="#000" filter="url(#s)" xlink:href="#t"/><use fill="#1998A2" xlink:href="#t"/></g><g transform="translate(125 247.6)"><use fill="#000" filter="url(#u)" xlink:href="#v"/><use fill="#1998A2" xlink:href="#v"/></g><g transform="translate(125 247.6)"><use fill="#000" filter="url(#w)" xlink:href="#x"/><use fill="#1998A2" xlink:href="#x"/></g><g transform="translate(125 247.6)"><use fill="#000" filter="url(#y)" xlink:href="#z"/><use fill="#1998A2" xlink:href="#z"/></g><g transform="translate(125 247.6)"><use fill="#000" filter="url(#A)" xlink:href="#B"/><use fill="#1998A2" xlink:href="#B"/></g><g transform="translate(125 247.6)"><use fill="#000" filter="url(#C)" xlink:href="#D"/><use fill="#1998A2" xlink:href="#D"/></g><path d="M281 281.2l-.109 13.929" stroke="#4A4A4A" stroke-width=".8" stroke-linecap="square"/><g fill="#172C41" font-family="SourceSansPro-Regular, Source Sans Pro" font-size="8.8"><text transform="translate(257.8 240.4)"><tspan x=".801" y="33">People helped - 30</tspan></text><text transform="translate(257.8 240.4)"><tspan x=".786" y="21">Goals completed - 3</tspan></text><text transform="translate(257.8 240.4)"><tspan x="1.528" y="9">Project Total Returns - £150,000</tspan></text></g><g transform="translate(125 239.92)"><use fill="#000" filter="url(#E)" xlink:href="#F"/><use stroke="#9C63E1" stroke-width="2" xlink:href="#F"/></g><g transform="translate(127 341.6)"><use fill="#000" filter="url(#G)" xlink:href="#H"/><use fill="#9C63E1" xlink:href="#H"/></g><g transform="translate(127 341.6)"><use fill="#000" filter="url(#I)" xlink:href="#J"/><use fill="#9C63E1" xlink:href="#J"/></g><g transform="translate(127 341.6)"><use fill="#000" filter="url(#K)" xlink:href="#L"/><use fill="#9C63E1" xlink:href="#L"/></g><g transform="translate(127 341.6)"><use fill="#000" filter="url(#M)" xlink:href="#N"/><use fill="#9C63E1" xlink:href="#N"/></g><g transform="translate(273 341.6)"><use fill="#000" filter="url(#O)" xlink:href="#P"/><use fill="#9C63E1" xlink:href="#P"/><ellipse stroke="#9C63E1" stroke-width="1.2" fill-opacity=".25" fill="#D8D8D8" cx="7.291" cy="7.304" rx="7.291" ry="7.304"/></g><path d="M303 348.632h-14.864" stroke="#9C63E1" stroke-width=".8" stroke-linecap="square"/><g fill="#172C41" font-family="SourceSansPro-Regular, Source Sans Pro" font-size="8.8"><text transform="translate(306.2 331.2)"><tspan x="1.279" y="33">People you helped - 20</tspan></text><text transform="translate(306.2 331.2)"><tspan x=".958" y="21">Goals you contributed to - 2</tspan></text><text transform="translate(306.2 331.2)"><tspan x=".796" y="9">Your Returns - £88,000</tspan></text></g><g fill="#000" font-family="Avenir-Medium, Avenir" font-size="8" font-weight="400" opacity=".5"><text transform="translate(123 410)"><tspan x="0" y="8.814">Jan</tspan></text><text transform="translate(123 410)"><tspan x="32" y="8.814">Feb</tspan></text><text transform="translate(123 410)"><tspan x="70.8" y="8.814">Mar</tspan></text><text transform="translate(123 410)"><tspan x="110" y="8.814">Apr</tspan></text><text transform="translate(123 410)"><tspan x="148.4" y="8.814">May</tspan></text><text transform="translate(123 410)"><tspan x="189.2" y="8.814">Jun</tspan></text><text transform="translate(123 410)"><tspan x="226.4" y="8.814">Jul</tspan></text><text transform="translate(123 410)"><tspan x="260.8" y="8.014">Aug</tspan></text><text transform="translate(123 410)"><tspan x="301.6" y="8.814">Sep</tspan></text><text transform="translate(123 410)"><tspan x="341.2" y="8.814">Oct</tspan></text><text transform="translate(123 410)"><tspan x="379.6" y="8.814">Nov</tspan></text><text transform="translate(123 410)"><tspan x="408.4" y="8.814">Dec</tspan></text></g><g fill="#000" font-family="Avenir-Medium, Avenir" font-size="8" font-weight="400" opacity=".5"><text transform="translate(87.8 231.6)"><tspan x=".8" y="8">£230,000</tspan></text><text transform="translate(87.8 231.6)"><tspan x=".8" y="30.4">£200,000</tspan></text><text transform="translate(87.8 231.6)"><tspan x=".8" y="52.8">£180,000</tspan></text><text transform="translate(87.8 231.6)"><tspan x=".4" y="75.2">£150,000</tspan></text><text transform="translate(87.8 231.6)"><tspan x=".4" y="97.6">£120,000</tspan></text><text transform="translate(87.8 231.6)"><tspan x="0" y="120">£90,000</tspan></text><text transform="translate(87.8 231.6)"><tspan x=".8" y="142.4">£60,000</tspan></text><text transform="translate(87.8 231.6)"><tspan x=".4" y="164.8">£30,000</tspan></text><text transform="translate(87.8 231.6)"><tspan x="1.2" y="187.2">£0</tspan></text></g><g fill="#4A4A4A"><path d="M479.8 190a1.6 1.6 0 001.6-1.6c0-.884-.8-1.6-1.6-1.6s-1.6.716-1.6 1.6a1.6 1.6 0 001.6 1.6z"/><text font-family="SourceSansPro-Regular, Source Sans Pro" font-size="10.4" transform="translate(431.4 165.2)"><tspan x="54.8" y="24.8">59% of total</tspan></text><text font-family="SourceSansPro-Semibold, Source Sans Pro" font-size="12" font-weight="500" transform="translate(431.4 165.2)"><tspan x="0" y="26.8">£88,000</tspan></text><text font-family="SourceSansPro-Regular, Source Sans Pro" font-size="10.4" transform="translate(431.4 165.2)"><tspan x="0" y="10">Your returns</tspan></text></g><g transform="translate(417 165.2)"><use fill="#000" filter="url(#Q)" xlink:href="#R"/><use fill="#9C63E1" xlink:href="#R"/></g><g fill="#4A4A4A"><text font-family="SourceSansPro-Semibold, Source Sans Pro" font-size="12" font-weight="500" transform="translate(295.4 165.2)"><tspan x="0" y="26.8">£150,000</tspan></text><text font-family="SourceSansPro-Regular, Source Sans Pro" font-size="10.4" transform="translate(295.4 165.2)"><tspan x="0" y="10">Project total returns</tspan></text></g><g transform="translate(281 165.2)"><use fill="#000" filter="url(#S)" xlink:href="#T"/><use fill="#2498A1" xlink:href="#T"/></g><text fill-opacity=".7" fill="#4A4A4A" font-family="SourceSansPro-Regular, Source Sans Pro" font-size="9.6" letter-spacing=".17" transform="translate(105.4 167.6)"><tspan x="0" y="9">WEEKLY</tspan></text><text fill="#4A4A4A" font-family="SourceSansPro-Semibold, Source Sans Pro" font-size="9.6" font-weight="500" transform="translate(105.4 167.6)"><tspan x="45.6" y="9">MONTHLY</tspan></text><text fill-opacity=".7" fill="#4A4A4A" font-family="SourceSansPro-Regular, Source Sans Pro" font-size="9.6" transform="translate(105.4 167.6)"><tspan x="99.6" y="9">YEARLY</tspan></text><path d="M147.47 179.1l46.814.2" stroke="#9C63E1" stroke-linecap="square"/><text font-family="SourceSansPro-Semibold, Source Sans Pro" font-size="12.8" font-weight="500" fill="#484848" transform="translate(27 3.2)"><tspan x="60.8" y="137.4">Your Returns over time</tspan></text><g transform="translate(277.8 64)"><use fill="#000" filter="url(#U)" xlink:href="#V"/><use fill="#9C63E1" xlink:href="#V"/></g><g fill="#FFF"><path d="M287.155 70L291 73.613l-.955 1.187-3.845-3.613z"/><path d="M286.6 77.045l3.312-3.845 1.088.955L287.688 78z"/></g><text font-family="SourceSansPro-Semibold, Source Sans Pro" font-size="8.8" font-weight="500" letter-spacing=".217" fill="#FFF" transform="translate(277.8 64)"><tspan x="17.2" y="13.4">INVEST MORE</tspan></text><text font-family="SourceSansPro-Regular, Source Sans Pro" font-size="11.2" fill="#484848" transform="translate(191 57.6)"><tspan x="0" y="11">Total returns</tspan></text><text font-family="SourceSansPro-Semibold, Source Sans Pro" font-size="12.8" font-weight="500" fill="#9C63E1" transform="translate(191 57.6)"><tspan x="0" y="29">£88,000</tspan></text><g transform="translate(137 57.6)"><mask id="X" fill="#fff"><use xlink:href="#W"/></mask><use fill-opacity=".4" fill="#9C63E1" xlink:href="#W"/><path fill="#9C63E1" mask="url(#X)" d="M12.8-4.4l.78 20.433L-3 6.4l7.8 27.4 23.4-5.6 6.2-4.131L32.274 3.91z"/><circle fill="#9C63E1" mask="url(#X)" cx="3" cy="8.2" r="1.8"/><circle fill="#9C63E1" mask="url(#X)" cx="13.4" cy="1" r="1.8"/></g><text font-family="SourceSansPro-Semibold, Source Sans Pro" font-size="11.2" font-weight="500" fill="#9C63E1" transform="translate(137 57.6)"><tspan x="5.2" y="19">10%</tspan></text><text font-family="SourceSansPro-Semibold, Source Sans Pro" font-size="12.8" font-weight="500" fill="#9C63E1" transform="translate(88.6 57.6)"><tspan x="0" y="29">£8,000</tspan></text><text font-family="SourceSansPro-Regular, Source Sans Pro" font-size="11.2" fill="#484848" transform="translate(88.6 57.6)"><tspan x="0" y="11">RoI</tspan></text><text font-family="SourceSansPro-Semibold, Source Sans Pro" font-size="12.8" font-weight="500" fill="#484848" transform="translate(88.2 34)"><tspan x="0" y="13">Your Returns</tspan></text><text font-family="SourceSansPro-Regular, Source Sans Pro" font-size="11.2" fill="#484848" transform="translate(345.8 -23.2)"><tspan x="17.6" y="26.6">people</tspan></text><text font-family="SourceSansPro-Semibold, Source Sans Pro" font-size="12.8" font-weight="500" fill="#9C63E1" transform="translate(345.8 -23.2)"><tspan x="0" y="29">20</tspan></text><g transform="translate(275.8 -22.4)"><mask id="Z" fill="#fff"><use xlink:href="#Y"/></mask><use fill-opacity=".4" fill="#9C63E1" xlink:href="#Y"/><path fill="#9C63E1" mask="url(#Z)" d="M12.8-4.4l.78 20.433L-3 6.4l7.8 27.4 23.4-5.6 6.2-4.131L32.274 3.91z"/></g><text font-family="SourceSansPro-Regular, Source Sans Pro" font-size="11.2" fill="#484848" transform="translate(189 -23.2)"><tspan x="48.8" y="26.6">so far</tspan></text><text font-family="SourceSansPro-Semibold, Source Sans Pro" font-size="12.8" font-weight="500" fill="#9C63E1" transform="translate(189 -23.2)"><tspan x="0" y="28.6">£80,000</tspan></text><text transform="translate(88.2 -23.2)" fill="#9C63E1" font-family="SourceSansPro-Semibold, Source Sans Pro" font-size="12.8" font-weight="500"><tspan x="0" y="28.6">£100,000</tspan></text></g></g></svg>