<svg version="1.1" id="Layer_1" xmlns="http://www.w3.org/2000/svg" x="0" y="0" viewBox="0 0 171.81 69.61" xml:space="preserve"><style>.st1{fill:#a4a6a8}</style><path d="M1.42 43.01h1.22v-6.25c0-.95.11-2.03.43-3.04.64-2.14 2.06-4.05 4.32-4.05.32 0 .67.06.67.06V28.5s-.41-.09-.84-.09c-2.29 0-3.91 1.83-4.63 4.06h-.07s.12-.52.12-1.19v-2.75H1.42v14.48zm7.47-7.21c0 4.6 3.39 7.56 7.47 7.56 3.13 0 5.15-2 5.15-2l-.67-1.01s-1.71 1.82-4.49 1.82c-3.36 0-6.2-2.4-6.2-6.6h11.61s.06-.46.06-.78c0-3.5-1.97-6.6-5.91-6.6-3.69 0-7.02 2.72-7.02 7.61m1.36-1.36c.52-3.39 2.98-5.12 5.65-5.12 2.4 0 4.52 1.59 4.66 5.12H10.25zm13.78 6.83s1.74 2.08 5.24 2.08c2.66 0 4.63-1.59 4.63-3.91 0-4.81-7.96-3.68-7.96-7.44 0-1.88 1.62-2.64 3.27-2.64 2.46 0 3.65 1.36 3.65 1.36l.72-.99s-1.33-1.56-4.29-1.56c-2.46 0-4.63 1.33-4.63 3.91 0 4.72 7.96 3.68 7.96 7.35 0 1.8-1.56 2.72-3.33 2.72-2.87 0-4.49-1.82-4.49-1.82l-.77.94zm12.03-5.58c0 4.31 3.36 7.67 7.5 7.67 4.14 0 7.5-3.36 7.5-7.67 0-4.23-3.36-7.5-7.5-7.5-4.14 0-7.5 3.27-7.5 7.5m1.27 0c0-3.59 2.78-6.31 6.22-6.31 3.45 0 6.23 2.72 6.23 6.31 0 3.68-2.78 6.49-6.23 6.49-3.44-.01-6.22-2.82-6.22-6.49m17.18 7.32h1.22v-7.06c0-.7.06-1.36.23-1.97.72-2.69 3.13-4.6 5.85-4.6 3.24 0 3.56 2.38 3.56 4.9v8.74h1.22v-9.18c0-3.42-1.01-5.65-4.78-5.65-3.62 0-5.65 2.72-6.14 4.08h-.06s.11-.52.11-1.19v-2.55H54.5v14.48zm15.13-3.85c0 2.9 2.58 4.2 4.92 4.2 3.76 0 5.1-3.56 5.07-3.56h.06s-.11.52-.11 1.3v1.91h1.22v-9.35c0-3.62-1.8-5.47-5.13-5.47-3.16 0-4.89 1.59-4.89 1.59l.69.99s1.62-1.39 4.14-1.39c2.32 0 3.97 1.1 3.97 4.32v.49h-.96c-2.58-.01-8.98.05-8.98 4.97m1.27-.09c0-3.76 5.27-3.76 7.73-3.76h.93v.78c0 2.87-1.8 6.14-4.95 6.14-2.46 0-3.71-1.62-3.71-3.16m14.14 3.94h1.22v-7.06c0-.7.06-1.36.23-1.97.73-2.69 3.13-4.6 5.85-4.6 3.24 0 3.56 2.38 3.56 4.9v8.74h1.22v-9.18c0-3.42-1.01-5.65-4.78-5.65-3.62 0-5.65 2.72-6.14 4.08h-.06s.12-.52.12-1.19v-2.55h-1.22v14.48zm15.45-7.21c0 4.6 3.39 7.56 7.47 7.56 3.59 0 5.47-2.26 5.47-2.26l-.64-1.01s-1.65 2.08-4.84 2.08c-3.39 0-6.2-2.52-6.2-6.37 0-3.91 2.81-6.43 6.2-6.43 2.78 0 4.43 1.85 4.43 1.85l.75-.98s-1.74-2.06-5.18-2.06c-4.01.01-7.46 3.02-7.46 7.62m14.59 0c0 4.6 3.39 7.56 7.47 7.56 3.13 0 5.15-2 5.15-2l-.67-1.01s-1.71 1.82-4.49 1.82c-3.36 0-6.2-2.4-6.2-6.6h11.61s.06-.46.06-.78c0-3.5-1.97-6.6-5.91-6.6-3.69 0-7.02 2.72-7.02 7.61m1.36-1.36c.52-3.39 2.98-5.12 5.65-5.12 2.4 0 4.52 1.59 4.66 5.12h-10.31z" fill="#5c5958"/><path class="st1" d="M126.21 1.38l-9.47 7.74 1.8 11.87 11.28 4.14 9.47-7.73-1.81-11.88z"/><path fill="#fff" d="M145.47 44.46l-11.27-4.14-1.8-11.86 9.46-7.73 11.27 4.13 1.8 11.87z"/><path class="st1" d="M145.51 44.74l-.13-.05-11.41-4.19-1.85-12.15 9.68-7.91 11.54 4.24 1.85 12.15-9.68 7.91zm-11.08-4.6l10.99 4.04 9.24-7.55-1.76-11.58-11-4.04-9.24 7.55 1.77 11.58z"/><path fill="#00a2cd" d="M147.98 47.88l1.9 11.86 11.31 4.05 9.41-7.81-1.9-11.86-11.31-4.05z"/><path fill="#dadadb" d="M123.35 51.86l2.04 12.05 11.22 4.3 9.17-7.75-2.05-12.06-11.21-4.3z"/></svg>