<svg xmlns="http://www.w3.org/2000/svg" width="65" height="65" viewBox="0 0 65 65"><defs><mask id="hzv7c" width="2" height="2" x="-1" y="-1"><path fill="#fff" d="M4 34h10v10H4z"/><path d="M5.404 43.805a1.578 1.578 0 0 0-.455-.37l7.8-9.365c.113.16.258.3.424.407z"/></mask><filter id="hzv7b" width="78" height="78" x="-30" y="0" filterUnits="userSpaceOnUse"><feOffset in="SourceGraphic" result="FeOffset1224Out"/><feGaussianBlur in="FeOffset1224Out" result="FeGaussianBlur1225Out" stdDeviation="9.6 9.6"/></filter><mask id="hzv7e" width="2" height="2" x="-1" y="-1"><path fill="#fff" d="M4 34h10v10H4z"/><path d="M5.404 43.805a1.578 1.578 0 0 0-.455-.37l7.8-9.365c.113.16.258.3.424.407z"/></mask><filter id="hzv7d" width="34" height="36" x="-8" y="22" filterUnits="userSpaceOnUse"><feOffset dy="2" in="SourceGraphic" result="FeOffset1235Out"/><feGaussianBlur in="FeOffset1235Out" result="FeGaussianBlur1236Out" stdDeviation="0.8 0.8"/></filter><mask id="hzv7g" width="2" height="2" x="-1" y="-1"><path fill="#fff" d="M14 21h10v12H14z"/><path d="M15.205 32.141a1.58 1.58 0 0 0-.475-.346l7.931-10.792c.123.154.275.284.448.383z"/></mask><filter id="hzv7f" width="78" height="80" x="-20" y="-13" filterUnits="userSpaceOnUse"><feOffset in="SourceGraphic" result="FeOffset1252Out"/><feGaussianBlur in="FeOffset1252Out" result="FeGaussianBlur1253Out" stdDeviation="9.6 9.6"/></filter><mask id="hzv7i" width="2" height="2" x="-1" y="-1"><path fill="#fff" d="M14 21h10v12H14z"/><path d="M15.205 32.141a1.58 1.58 0 0 0-.475-.346l7.931-10.792c.123.154.275.284.448.383z"/></mask><filter id="hzv7h" width="34" height="38" x="2" y="9" filterUnits="userSpaceOnUse"><feOffset dy="2" in="SourceGraphic" result="FeOffset1263Out"/><feGaussianBlur in="FeOffset1263Out" result="FeGaussianBlur1264Out" stdDeviation="0.8 0.8"/></filter><mask id="hzv7k" width="2" height="2" x="-1" y="-1"><path fill="#fff" d="M24 21h10v33H24z"/><path d="M24.043 21.59c.203-.018.395-.073.57-.159l8.9 31.88c-.202.031-.39.1-.558.198z"/></mask><filter id="hzv7j" width="78" height="101" x="-10" y="-13" filterUnits="userSpaceOnUse"><feOffset in="SourceGraphic" result="FeOffset1280Out"/><feGaussianBlur in="FeOffset1280Out" result="FeGaussianBlur1281Out" stdDeviation="9.6 9.6"/></filter><mask id="hzv7m" width="2" height="2" x="-1" y="-1"><path fill="#fff" d="M24 21h10v33H24z"/><path d="M24.043 21.59c.203-.018.395-.073.57-.159l8.9 31.88c-.202.031-.39.1-.558.198z"/></mask><filter id="hzv7l" width="34" height="59" x="12" y="9" filterUnits="userSpaceOnUse"><feOffset dy="2" in="SourceGraphic" result="FeOffset1291Out"/><feGaussianBlur in="FeOffset1291Out" result="FeGaussianBlur1292Out" stdDeviation="0.8 0.8"/></filter><mask id="hzv7o" width="2" height="2" x="-1" y="-1"><path fill="#fff" d="M34 47h9v8h-9z"/><path d="M35.17 54.141a1.561 1.561 0 0 0-.361-.46l7.466-5.771c.104.166.24.313.399.43z"/></mask><filter id="hzv7n" width="77" height="76" x="0" y="13" filterUnits="userSpaceOnUse"><feOffset in="SourceGraphic" result="FeOffset1308Out"/><feGaussianBlur in="FeOffset1308Out" result="FeGaussianBlur1309Out" stdDeviation="9.6 9.6"/></filter><mask id="hzv7q" width="2" height="2" x="-1" y="-1"><path fill="#fff" d="M34 47h9v8h-9z"/><path d="M35.17 54.141a1.561 1.561 0 0 0-.361-.46l7.466-5.771c.104.166.24.313.399.43z"/></mask><filter id="hzv7p" width="33" height="34" x="22" y="35" filterUnits="userSpaceOnUse"><feOffset dy="2" in="SourceGraphic" result="FeOffset1319Out"/><feGaussianBlur in="FeOffset1319Out" result="FeGaussianBlur1320Out" stdDeviation="0.8 0.8"/></filter><mask id="hzv7s" width="2" height="2" x="-1" y="-1"><path fill="#fff" d="M45 45h7v3h-7z"/><path d="M45.191 47.24c0-.215-.04-.42-.112-.61l6.82-1.342c.013.215.066.419.15.603z"/></mask><filter id="hzv7r" width="75" height="71" x="11" y="11" filterUnits="userSpaceOnUse"><feOffset in="SourceGraphic" result="FeOffset1336Out"/><feGaussianBlur in="FeOffset1336Out" result="FeGaussianBlur1337Out" stdDeviation="9.6 9.6"/></filter><mask id="hzv7u" width="2" height="2" x="-1" y="-1"><path fill="#fff" d="M45 45h7v3h-7z"/><path d="M45.191 47.24c0-.215-.04-.42-.112-.61l6.82-1.342c.013.215.066.419.15.603z"/></mask><filter id="hzv7t" width="31" height="29" x="33" y="33" filterUnits="userSpaceOnUse"><feOffset dy="2" in="SourceGraphic" result="FeOffset1347Out"/><feGaussianBlur in="FeOffset1347Out" result="FeGaussianBlur1348Out" stdDeviation="0.8 0.8"/></filter><mask id="hzv7w" width="2" height="2" x="-1" y="-1"><path fill="#fff" d="M54 32h9v13h-9z"/><path d="M54.623 44.122a1.578 1.578 0 0 0-.475-.346l8.033-11.09c.135.142.296.26.476.345z"/></mask><filter id="hzv7v" width="77" height="81" x="20" y="-2" filterUnits="userSpaceOnUse"><feOffset in="SourceGraphic" result="FeOffset1364Out"/><feGaussianBlur in="FeOffset1364Out" result="FeGaussianBlur1365Out" stdDeviation="9.6 9.6"/></filter><mask id="hzv7y" width="2" height="2" x="-1" y="-1"><path fill="#fff" d="M54 32h9v13h-9z"/><path d="M54.623 44.122a1.578 1.578 0 0 0-.475-.346l8.033-11.09c.135.142.296.26.476.345z"/></mask><filter id="hzv7x" width="33" height="39" x="42" y="20" filterUnits="userSpaceOnUse"><feOffset dy="2" in="SourceGraphic" result="FeOffset1375Out"/><feGaussianBlur in="FeOffset1375Out" result="FeGaussianBlur1376Out" stdDeviation="0.8 0.8"/></filter><mask id="hzv7A" width="2" height="2" x="-1" y="-1"><path fill="#fff" d="M63 0h10v31H63z"/><path d="M63.991 30.24a1.601 1.601 0 0 0-.575-.138L72.361.458c.167.102.354.174.554.21z"/></mask><filter id="hzv7z" width="78" height="99" x="29" y="-34" filterUnits="userSpaceOnUse"><feOffset in="SourceGraphic" result="FeOffset1392Out"/><feGaussianBlur in="FeOffset1392Out" result="FeGaussianBlur1393Out" stdDeviation="9.6 9.6"/></filter><mask id="hzv7C" width="2" height="2" x="-1" y="-1"><path fill="#fff" d="M63 0h10v31H63z"/><path d="M63.991 30.24a1.601 1.601 0 0 0-.575-.138L72.361.458c.167.102.354.174.554.21z"/></mask><filter id="hzv7B" width="34" height="57" x="51" y="-12" filterUnits="userSpaceOnUse"><feOffset dy="2" in="SourceGraphic" result="FeOffset1403Out"/><feGaussianBlur in="FeOffset1403Out" result="FeGaussianBlur1404Out" stdDeviation="0.8 0.8"/></filter><mask id="hzv7E" width="2" height="2" x="-1" y="-1"><path fill="#fff" d="M74-1h8v6h-8z"/><path d="M74.425.134a1.54 1.54 0 0 0 .277-.513l7.138 3.962c-.126.148-.224.32-.286.507z"/></mask><filter id="hzv7D" width="76" height="74" x="40" y="-35" filterUnits="userSpaceOnUse"><feOffset in="SourceGraphic" result="FeOffset1420Out"/><feGaussianBlur in="FeOffset1420Out" result="FeGaussianBlur1421Out" stdDeviation="9.6 9.6"/></filter><mask id="hzv7G" width="2" height="2" x="-1" y="-1"><path fill="#fff" d="M74-1h8v6h-8z"/><path d="M74.425.134a1.54 1.54 0 0 0 .277-.513l7.138 3.962c-.126.148-.224.32-.286.507z"/></mask><filter id="hzv7F" width="32" height="32" x="62" y="-13" filterUnits="userSpaceOnUse"><feOffset dy="2" in="SourceGraphic" result="FeOffset1431Out"/><feGaussianBlur in="FeOffset1431Out" result="FeGaussianBlur1432Out" stdDeviation="0.8 0.8"/></filter><mask id="hzv7I" width="2" height="2" x="-1" y="-1"><path fill="#fff" d="M84 1h8v4h-8z"/><path d="M84.633 4.425a1.52 1.52 0 0 0-.166-.557l6.865-2.245c.019.199.077.387.166.557z"/></mask><filter id="hzv7H" width="76" height="72" x="50" y="-33" filterUnits="userSpaceOnUse"><feOffset in="SourceGraphic" result="FeOffset1448Out"/><feGaussianBlur in="FeOffset1448Out" result="FeGaussianBlur1449Out" stdDeviation="9.6 9.6"/></filter><mask id="hzv7K" width="2" height="2" x="-1" y="-1"><path fill="#fff" d="M84 1h8v4h-8z"/><path d="M84.633 4.425a1.52 1.52 0 0 0-.166-.557l6.865-2.245c.019.199.077.387.166.557z"/></mask><filter id="hzv7J" width="32" height="30" x="72" y="-11" filterUnits="userSpaceOnUse"><feOffset dy="2" in="SourceGraphic" result="FeOffset1459Out"/><feGaussianBlur in="FeOffset1459Out" result="FeGaussianBlur1460Out" stdDeviation="0.8 0.8"/></filter><mask id="hzv7M" width="2" height="2" x="-1" y="-1"><path fill="#fff" d="M93 2h10v14H93z"/><path d="M93.584 2.888c.181-.084.344-.2.48-.342l8.154 12.565c-.187.07-.358.173-.504.303z"/></mask><filter id="hzv7L" width="78" height="82" x="59" y="-32" filterUnits="userSpaceOnUse"><feOffset in="SourceGraphic" result="FeOffset1476Out"/><feGaussianBlur in="FeOffset1476Out" result="FeGaussianBlur1477Out" stdDeviation="9.6 9.6"/></filter><mask id="hzv7O" width="2" height="2" x="-1" y="-1"><path fill="#fff" d="M93 2h10v14H93z"/><path d="M93.584 2.888c.181-.084.344-.2.48-.342l8.154 12.565c-.187.07-.358.173-.504.303z"/></mask><filter id="hzv7N" width="34" height="40" x="81" y="-10" filterUnits="userSpaceOnUse"><feOffset dy="2" in="SourceGraphic" result="FeOffset1487Out"/><feGaussianBlur in="FeOffset1487Out" result="FeGaussianBlur1488Out" stdDeviation="0.8 0.8"/></filter><filter id="hzv7P" width="79" height="93" x="68" y="-18" filterUnits="userSpaceOnUse"><feOffset in="SourceGraphic" result="FeOffset1503Out"/><feGaussianBlur in="FeOffset1503Out" result="FeGaussianBlur1504Out" stdDeviation="9.6 9.6"/></filter><filter id="hzv7Q" width="35" height="51" x="90" y="4" filterUnits="userSpaceOnUse"><feOffset dy="2" in="SourceGraphic" result="FeOffset1513Out"/><feGaussianBlur in="FeOffset1513Out" result="FeGaussianBlur1514Out" stdDeviation="0.8 0.8"/></filter><mask id="hzv7S" width="2" height="2" x="-1" y="-1"><path fill="#fff" d="M3 43h3v3H3z"/><path d="M4.183 45.95c.653 0 1.183-.52 1.183-1.16 0-.64-.53-1.16-1.183-1.16S3 44.15 3 44.79c0 .64.53 1.16 1.183 1.16z"/></mask><filter id="hzv7R" width="71" height="71" x="-31" y="9" filterUnits="userSpaceOnUse"><feOffset in="SourceGraphic" result="FeOffset1532Out"/><feGaussianBlur in="FeOffset1532Out" result="FeGaussianBlur1533Out" stdDeviation="9.6 9.6"/></filter><mask id="hzv7U" width="2" height="2" x="-1" y="-1"><path fill="#fff" d="M3 43h3v3H3z"/><path d="M4.183 45.95c.653 0 1.183-.52 1.183-1.16 0-.64-.53-1.16-1.183-1.16S3 44.15 3 44.79c0 .64.53 1.16 1.183 1.16z"/></mask><filter id="hzv7T" width="27" height="29" x="-9" y="31" filterUnits="userSpaceOnUse"><feOffset dy="2" in="SourceGraphic" result="FeOffset1543Out"/><feGaussianBlur in="FeOffset1543Out" result="FeGaussianBlur1544Out" stdDeviation="0.8 0.8"/></filter><mask id="hzv7W" width="2" height="2" x="-1" y="-1"><path fill="#fff" d="M12 32h4v3h-4z"/><path d="M14.043 34.35c.653 0 1.183-.52 1.183-1.16 0-.64-.53-1.16-1.183-1.16s-1.183.52-1.183 1.16c0 .64.53 1.16 1.183 1.16z"/></mask><filter id="hzv7V" width="72" height="71" x="-22" y="-2" filterUnits="userSpaceOnUse"><feOffset in="SourceGraphic" result="FeOffset1560Out"/><feGaussianBlur in="FeOffset1560Out" result="FeGaussianBlur1561Out" stdDeviation="9.6 9.6"/></filter><mask id="hzv7Y" width="2" height="2" x="-1" y="-1"><path fill="#fff" d="M12 32h4v3h-4z"/><path d="M14.043 34.35c.653 0 1.183-.52 1.183-1.16 0-.64-.53-1.16-1.183-1.16s-1.183.52-1.183 1.16c0 .64.53 1.16 1.183 1.16z"/></mask><filter id="hzv7X" width="28" height="29" x="0" y="20" filterUnits="userSpaceOnUse"><feOffset dy="2" in="SourceGraphic" result="FeOffset1571Out"/><feGaussianBlur in="FeOffset1571Out" result="FeGaussianBlur1572Out" stdDeviation="0.8 0.8"/></filter><mask id="hzv7aa" width="2" height="2" x="-1" y="-1"><path fill="#fff" d="M22 18h4v4h-4z"/><path d="M23.903 21.2c.653 0 1.183-.52 1.183-1.16 0-.64-.53-1.16-1.183-1.16s-1.183.52-1.183 1.16c0 .64.53 1.16 1.183 1.16z"/></mask><filter id="hzv7Z" width="72" height="72" x="-12" y="-16" filterUnits="userSpaceOnUse"><feOffset in="SourceGraphic" result="FeOffset1588Out"/><feGaussianBlur in="FeOffset1588Out" result="FeGaussianBlur1589Out" stdDeviation="9.6 9.6"/></filter><mask id="hzv7ac" width="2" height="2" x="-1" y="-1"><path fill="#fff" d="M22 18h4v4h-4z"/><path d="M23.903 21.2c.653 0 1.183-.52 1.183-1.16 0-.64-.53-1.16-1.183-1.16s-1.183.52-1.183 1.16c0 .64.53 1.16 1.183 1.16z"/></mask><filter id="hzv7ab" width="28" height="30" x="10" y="6" filterUnits="userSpaceOnUse"><feOffset dy="2" in="SourceGraphic" result="FeOffset1599Out"/><feGaussianBlur in="FeOffset1599Out" result="FeGaussianBlur1600Out" stdDeviation="0.8 0.8"/></filter><mask id="hzv7ae" width="2" height="2" x="-1" y="-1"><path fill="#fff" d="M32 53h3v3h-3z"/><path d="M33.763 56c.653 0 1.183-.52 1.183-1.16 0-.64-.53-1.16-1.183-1.16s-1.183.52-1.183 1.16c0 .64.53 1.16 1.183 1.16z"/></mask><filter id="hzv7ad" width="71" height="71" x="-2" y="19" filterUnits="userSpaceOnUse"><feOffset in="SourceGraphic" result="FeOffset1616Out"/><feGaussianBlur in="FeOffset1616Out" result="FeGaussianBlur1617Out" stdDeviation="9.6 9.6"/></filter><mask id="hzv7ag" width="2" height="2" x="-1" y="-1"><path fill="#fff" d="M32 53h3v3h-3z"/><path d="M33.763 56c.653 0 1.183-.52 1.183-1.16 0-.64-.53-1.16-1.183-1.16s-1.183.52-1.183 1.16c0 .64.53 1.16 1.183 1.16z"/></mask><filter id="hzv7af" width="27" height="29" x="20" y="41" filterUnits="userSpaceOnUse"><feOffset dy="2" in="SourceGraphic" result="FeOffset1627Out"/><feGaussianBlur in="FeOffset1627Out" result="FeGaussianBlur1628Out" stdDeviation="0.8 0.8"/></filter><mask id="hzv7ai" width="2" height="2" x="-1" y="-1"><path fill="#fff" d="M42 45h3v4h-3z"/><path d="M43.613 48.27c.653 0 1.183-.52 1.183-1.16 0-.64-.53-1.16-1.183-1.16s-1.183.52-1.183 1.16c0 .64.53 1.16 1.183 1.16z"/></mask><filter id="hzv7ah" width="71" height="72" x="8" y="11" filterUnits="userSpaceOnUse"><feOffset in="SourceGraphic" result="FeOffset1644Out"/><feGaussianBlur in="FeOffset1644Out" result="FeGaussianBlur1645Out" stdDeviation="9.6 9.6"/></filter><mask id="hzv7ak" width="2" height="2" x="-1" y="-1"><path fill="#fff" d="M42 45h3v4h-3z"/><path d="M43.613 48.27c.653 0 1.183-.52 1.183-1.16 0-.64-.53-1.16-1.183-1.16s-1.183.52-1.183 1.16c0 .64.53 1.16 1.183 1.16z"/></mask><filter id="hzv7aj" width="27" height="30" x="30" y="33" filterUnits="userSpaceOnUse"><feOffset dy="2" in="SourceGraphic" result="FeOffset1655Out"/><feGaussianBlur in="FeOffset1655Out" result="FeGaussianBlur1656Out" stdDeviation="0.8 0.8"/></filter><mask id="hzv7am" width="2" height="2" x="-1" y="-1"><path fill="#fff" d="M52 44h3v3h-3z"/><path d="M53.473 46.33c.653 0 1.183-.52 1.183-1.16 0-.64-.53-1.16-1.183-1.16s-1.183.52-1.183 1.16c0 .64.53 1.16 1.183 1.16z"/></mask><filter id="hzv7al" width="71" height="71" x="18" y="10" filterUnits="userSpaceOnUse"><feOffset in="SourceGraphic" result="FeOffset1672Out"/><feGaussianBlur in="FeOffset1672Out" result="FeGaussianBlur1673Out" stdDeviation="9.6 9.6"/></filter><mask id="hzv7ao" width="2" height="2" x="-1" y="-1"><path fill="#fff" d="M52 44h3v3h-3z"/><path d="M53.473 46.33c.653 0 1.183-.52 1.183-1.16 0-.64-.53-1.16-1.183-1.16s-1.183.52-1.183 1.16c0 .64.53 1.16 1.183 1.16z"/></mask><filter id="hzv7an" width="27" height="29" x="40" y="32" filterUnits="userSpaceOnUse"><feOffset dy="2" in="SourceGraphic" result="FeOffset1683Out"/><feGaussianBlur in="FeOffset1683Out" result="FeGaussianBlur1684Out" stdDeviation="0.8 0.8"/></filter><mask id="hzv7aq" width="2" height="2" x="-1" y="-1"><path fill="#fff" d="M62 30h3v3h-3z"/><path d="M63.333 32.8c.653 0 1.183-.52 1.183-1.16 0-.64-.53-1.16-1.183-1.16s-1.183.52-1.183 1.16c0 .64.53 1.16 1.183 1.16z"/></mask><filter id="hzv7ap" width="71" height="71" x="28" y="-4" filterUnits="userSpaceOnUse"><feOffset in="SourceGraphic" result="FeOffset1700Out"/><feGaussianBlur in="FeOffset1700Out" result="FeGaussianBlur1701Out" stdDeviation="9.6 9.6"/></filter><mask id="hzv7as" width="2" height="2" x="-1" y="-1"><path fill="#fff" d="M62 30h3v3h-3z"/><path d="M63.333 32.8c.653 0 1.183-.52 1.183-1.16 0-.64-.53-1.16-1.183-1.16s-1.183.52-1.183 1.16c0 .64.53 1.16 1.183 1.16z"/></mask><filter id="hzv7ar" width="27" height="29" x="50" y="18" filterUnits="userSpaceOnUse"><feOffset dy="2" in="SourceGraphic" result="FeOffset1711Out"/><feGaussianBlur in="FeOffset1711Out" result="FeGaussianBlur1712Out" stdDeviation="0.8 0.8"/></filter><mask id="hzv7au" width="2" height="2" x="-1" y="-1"><path fill="#fff" d="M72-2h3v3h-3z"/><path d="M73.193.32c.653 0 1.183-.52 1.183-1.16 0-.64-.53-1.16-1.183-1.16s-1.183.52-1.183 1.16c0 .64.53 1.16 1.183 1.16z"/></mask><filter id="hzv7at" width="71" height="71" x="38" y="-36" filterUnits="userSpaceOnUse"><feOffset in="SourceGraphic" result="FeOffset1728Out"/><feGaussianBlur in="FeOffset1728Out" result="FeGaussianBlur1729Out" stdDeviation="9.6 9.6"/></filter><mask id="hzv7aw" width="2" height="2" x="-1" y="-1"><path fill="#fff" d="M72-2h3v3h-3z"/><path d="M73.193.32c.653 0 1.183-.52 1.183-1.16 0-.64-.53-1.16-1.183-1.16s-1.183.52-1.183 1.16c0 .64.53 1.16 1.183 1.16z"/></mask><filter id="hzv7av" width="27" height="29" x="60" y="-14" filterUnits="userSpaceOnUse"><feOffset dy="2" in="SourceGraphic" result="FeOffset1739Out"/><feGaussianBlur in="FeOffset1739Out" result="FeGaussianBlur1740Out" stdDeviation="0.8 0.8"/></filter><mask id="hzv7ay" width="2" height="2" x="-1" y="-1"><path fill="#fff" d="M81 3h4v3h-4z"/><path d="M83.053 5.73c.653 0 1.183-.52 1.183-1.16 0-.64-.53-1.16-1.183-1.16s-1.183.52-1.183 1.16c0 .64.53 1.16 1.183 1.16z"/></mask><filter id="hzv7ax" width="72" height="71" x="47" y="-31" filterUnits="userSpaceOnUse"><feOffset in="SourceGraphic" result="FeOffset1756Out"/><feGaussianBlur in="FeOffset1756Out" result="FeGaussianBlur1757Out" stdDeviation="9.6 9.6"/></filter><mask id="hzv7aA" width="2" height="2" x="-1" y="-1"><path fill="#fff" d="M81 3h4v3h-4z"/><path d="M83.053 5.73c.653 0 1.183-.52 1.183-1.16 0-.64-.53-1.16-1.183-1.16s-1.183.52-1.183 1.16c0 .64.53 1.16 1.183 1.16z"/></mask><filter id="hzv7az" width="28" height="29" x="69" y="-9" filterUnits="userSpaceOnUse"><feOffset dy="2" in="SourceGraphic" result="FeOffset1767Out"/><feGaussianBlur in="FeOffset1767Out" result="FeGaussianBlur1768Out" stdDeviation="0.8 0.8"/></filter><mask id="hzv7aC" width="2" height="2" x="-1" y="-1"><path fill="#fff" d="M91 0h4v3h-4z"/><path d="M92.913 2.64c.653 0 1.183-.52 1.183-1.16 0-.64-.53-1.16-1.183-1.16S91.73.84 91.73 1.48c0 .64.53 1.16 1.183 1.16z"/></mask><filter id="hzv7aB" width="72" height="71" x="57" y="-34" filterUnits="userSpaceOnUse"><feOffset in="SourceGraphic" result="FeOffset1784Out"/><feGaussianBlur in="FeOffset1784Out" result="FeGaussianBlur1785Out" stdDeviation="9.6 9.6"/></filter><mask id="hzv7aE" width="2" height="2" x="-1" y="-1"><path fill="#fff" d="M91 0h4v3h-4z"/><path d="M92.913 2.64c.653 0 1.183-.52 1.183-1.16 0-.64-.53-1.16-1.183-1.16S91.73.84 91.73 1.48c0 .64.53 1.16 1.183 1.16z"/></mask><filter id="hzv7aD" width="28" height="29" x="79" y="-12" filterUnits="userSpaceOnUse"><feOffset dy="2" in="SourceGraphic" result="FeOffset1795Out"/><feGaussianBlur in="FeOffset1795Out" result="FeGaussianBlur1796Out" stdDeviation="0.8 0.8"/></filter><mask id="hzv7aG" width="2" height="2" x="-1" y="-1"><path fill="#fff" d="M101 15h3v3h-3z"/><path d="M102.773 17.72c.653 0 1.183-.52 1.183-1.16 0-.64-.53-1.16-1.183-1.16s-1.183.52-1.183 1.16c0 .64.53 1.16 1.183 1.16z"/></mask><filter id="hzv7aF" width="71" height="71" x="67" y="-19" filterUnits="userSpaceOnUse"><feOffset in="SourceGraphic" result="FeOffset1812Out"/><feGaussianBlur in="FeOffset1812Out" result="FeGaussianBlur1813Out" stdDeviation="9.6 9.6"/></filter><mask id="hzv7aI" width="2" height="2" x="-1" y="-1"><path fill="#fff" d="M101 15h3v3h-3z"/><path d="M102.773 17.72c.653 0 1.183-.52 1.183-1.16 0-.64-.53-1.16-1.183-1.16s-1.183.52-1.183 1.16c0 .64.53 1.16 1.183 1.16z"/></mask><filter id="hzv7aH" width="27" height="29" x="89" y="3" filterUnits="userSpaceOnUse"><feOffset dy="2" in="SourceGraphic" result="FeOffset1823Out"/><feGaussianBlur in="FeOffset1823Out" result="FeGaussianBlur1824Out" stdDeviation="0.8 0.8"/></filter><mask id="hzv7aK" width="2" height="2" x="-1" y="-1"><path fill="#fff" d="M111 40h3v4h-3z"/><path d="M112.633 43.24c.653 0 1.183-.52 1.183-1.16 0-.64-.53-1.16-1.183-1.16s-1.183.52-1.183 1.16c0 .64.53 1.16 1.183 1.16z"/></mask><filter id="hzv7aJ" width="71" height="72" x="77" y="6" filterUnits="userSpaceOnUse"><feOffset in="SourceGraphic" result="FeOffset1840Out"/><feGaussianBlur in="FeOffset1840Out" result="FeGaussianBlur1841Out" stdDeviation="9.6 9.6"/></filter><mask id="hzv7aM" width="2" height="2" x="-1" y="-1"><path fill="#fff" d="M111 40h3v4h-3z"/><path d="M112.633 43.24c.653 0 1.183-.52 1.183-1.16 0-.64-.53-1.16-1.183-1.16s-1.183.52-1.183 1.16c0 .64.53 1.16 1.183 1.16z"/></mask><filter id="hzv7aL" width="27" height="30" x="99" y="28" filterUnits="userSpaceOnUse"><feOffset dy="2" in="SourceGraphic" result="FeOffset1851Out"/><feGaussianBlur in="FeOffset1851Out" result="FeGaussianBlur1852Out" stdDeviation="0.8 0.8"/></filter><mask id="hzv7aO" width="2" height="2" x="-1" y="-1"><path fill="#fff" d="M4 43h9v11H4z"/><path d="M4.478 53.091a1.627 1.627 0 0 0-.464-.39l8.077-9.666c.128.158.285.291.463.392z"/></mask><filter id="hzv7aN" width="77" height="79" x="-30" y="9" filterUnits="userSpaceOnUse"><feOffset in="SourceGraphic" result="FeOffset1872Out"/><feGaussianBlur in="FeOffset1872Out" result="FeGaussianBlur1873Out" stdDeviation="9.6 9.6"/></filter><mask id="hzv7aQ" width="2" height="2" x="-1" y="-1"><path fill="#fff" d="M4 43h9v11H4z"/><path d="M4.478 53.091a1.627 1.627 0 0 0-.464-.39l8.077-9.666c.128.158.285.291.463.392z"/></mask><filter id="hzv7aP" width="33" height="37" x="-8" y="31" filterUnits="userSpaceOnUse"><feOffset dy="2" in="SourceGraphic" result="FeOffset1883Out"/><feGaussianBlur in="FeOffset1883Out" result="FeGaussianBlur1884Out" stdDeviation="0.8 0.8"/></filter><mask id="hzv7aS" width="2" height="2" x="-1" y="-1"><path fill="#fff" d="M13 11h11v30H13z"/><path d="M14.181 40.646a1.612 1.612 0 0 0-.572-.206l9.018-28.85c.17.109.362.186.567.225z"/></mask><filter id="hzv7aR" width="79" height="98" x="-21" y="-23" filterUnits="userSpaceOnUse"><feOffset in="SourceGraphic" result="FeOffset1900Out"/><feGaussianBlur in="FeOffset1900Out" result="FeGaussianBlur1901Out" stdDeviation="9.6 9.6"/></filter><mask id="hzv7aU" width="2" height="2" x="-1" y="-1"><path fill="#fff" d="M13 11h11v30H13z"/><path d="M14.181 40.646a1.612 1.612 0 0 0-.572-.206l9.018-28.85c.17.109.362.186.567.225z"/></mask><filter id="hzv7aT" width="35" height="56" x="1" y="-1" filterUnits="userSpaceOnUse"><feOffset dy="2" in="SourceGraphic" result="FeOffset1911Out"/><feGaussianBlur in="FeOffset1911Out" result="FeGaussianBlur1912Out" stdDeviation="0.8 0.8"/></filter><mask id="hzv7aW" width="2" height="2" x="-1" y="-1"><path fill="#fff" d="M24 11h10v22H24z"/><path d="M23.95 11.776c.2-.057.384-.152.544-.275l8.804 21.303a1.613 1.613 0 0 0-.56.235z"/></mask><filter id="hzv7aV" width="78" height="90" x="-10" y="-23" filterUnits="userSpaceOnUse"><feOffset in="SourceGraphic" result="FeOffset1928Out"/><feGaussianBlur in="FeOffset1928Out" result="FeGaussianBlur1929Out" stdDeviation="9.6 9.6"/></filter><mask id="hzv7aY" width="2" height="2" x="-1" y="-1"><path fill="#fff" d="M24 11h10v22H24z"/><path d="M23.95 11.776c.2-.057.384-.152.544-.275l8.804 21.303a1.613 1.613 0 0 0-.56.235z"/></mask><filter id="hzv7aX" width="34" height="48" x="12" y="-1" filterUnits="userSpaceOnUse"><feOffset dy="2" in="SourceGraphic" result="FeOffset1939Out"/><feGaussianBlur in="FeOffset1939Out" result="FeGaussianBlur1940Out" stdDeviation="0.8 0.8"/></filter><mask id="hzv7ba" width="2" height="2" x="-1" y="-1"><path fill="#fff" d="M35 34h8v5h-8z"/><path d="M35.03 35.216c.105-.17.178-.362.213-.566l7.154 2.922c-.105.17-.178.362-.213.566z"/></mask><filter id="hzv7aZ" width="76" height="73" x="1" y="0" filterUnits="userSpaceOnUse"><feOffset in="SourceGraphic" result="FeOffset1956Out"/><feGaussianBlur in="FeOffset1956Out" result="FeGaussianBlur1957Out" stdDeviation="9.6 9.6"/></filter><mask id="hzv7bc" width="2" height="2" x="-1" y="-1"><path fill="#fff" d="M35 34h8v5h-8z"/><path d="M35.03 35.216c.105-.17.178-.362.213-.566l7.154 2.922c-.105.17-.178.362-.213.566z"/></mask><filter id="hzv7bb" width="32" height="31" x="23" y="22" filterUnits="userSpaceOnUse"><feOffset dy="2" in="SourceGraphic" result="FeOffset1967Out"/><feGaussianBlur in="FeOffset1967Out" result="FeGaussianBlur1968Out" stdDeviation="0.8 0.8"/></filter><mask id="hzv7be" width="2" height="2" x="-1" y="-1"><path fill="#fff" d="M44 29h9v9h-9z"/><path d="M45.186 37.596a1.62 1.62 0 0 0-.4-.458l7.743-7.989c.104.177.24.332.4.458z"/></mask><filter id="hzv7bd" width="77" height="77" x="10" y="-5" filterUnits="userSpaceOnUse"><feOffset in="SourceGraphic" result="FeOffset1984Out"/><feGaussianBlur in="FeOffset1984Out" result="FeGaussianBlur1985Out" stdDeviation="9.6 9.6"/></filter><mask id="hzv7bg" width="2" height="2" x="-1" y="-1"><path fill="#fff" d="M44 29h9v9h-9z"/><path d="M45.186 37.596a1.62 1.62 0 0 0-.4-.458l7.743-7.989c.104.177.24.332.4.458z"/></mask><filter id="hzv7bf" width="33" height="35" x="32" y="17" filterUnits="userSpaceOnUse"><feOffset dy="2" in="SourceGraphic" result="FeOffset1995Out"/><feGaussianBlur in="FeOffset1995Out" result="FeGaussianBlur1996Out" stdDeviation="0.8 0.8"/></filter><mask id="hzv7bi" width="2" height="2" x="-1" y="-1"><path fill="#fff" d="M54 29h10v21H54z"/><path d="M54.27 29.914c.203-.044.392-.126.56-.238l8.903 19.226a1.62 1.62 0 0 0-.56.235z"/></mask><filter id="hzv7bh" width="78" height="89" x="20" y="-5" filterUnits="userSpaceOnUse"><feOffset in="SourceGraphic" result="FeOffset2012Out"/><feGaussianBlur in="FeOffset2012Out" result="FeGaussianBlur2013Out" stdDeviation="9.6 9.6"/></filter><mask id="hzv7bk" width="2" height="2" x="-1" y="-1"><path fill="#fff" d="M54 29h10v21H54z"/><path d="M54.27 29.914c.203-.044.392-.126.56-.238l8.903 19.226a1.62 1.62 0 0 0-.56.235z"/></mask><filter id="hzv7bj" width="34" height="47" x="42" y="17" filterUnits="userSpaceOnUse"><feOffset dy="2" in="SourceGraphic" result="FeOffset2023Out"/><feGaussianBlur in="FeOffset2023Out" result="FeGaussianBlur2024Out" stdDeviation="0.8 0.8"/></filter><mask id="hzv7bm" width="2" height="2" x="-1" y="-1"><path fill="#fff" d="M65 51h9v7h-9z"/><path d="M65.11 51.72a1.62 1.62 0 0 0 .38-.47l7.653 6.068a1.619 1.619 0 0 0-.372.479z"/></mask><filter id="hzv7bl" width="77" height="75" x="31" y="17" filterUnits="userSpaceOnUse"><feOffset in="SourceGraphic" result="FeOffset2040Out"/><feGaussianBlur in="FeOffset2040Out" result="FeGaussianBlur2041Out" stdDeviation="9.6 9.6"/></filter><mask id="hzv7bo" width="2" height="2" x="-1" y="-1"><path fill="#fff" d="M65 51h9v7h-9z"/><path d="M65.11 51.72a1.62 1.62 0 0 0 .38-.47l7.653 6.068a1.619 1.619 0 0 0-.372.479z"/></mask><filter id="hzv7bn" width="33" height="33" x="53" y="39" filterUnits="userSpaceOnUse"><feOffset dy="2" in="SourceGraphic" result="FeOffset2051Out"/><feGaussianBlur in="FeOffset2051Out" result="FeGaussianBlur2052Out" stdDeviation="0.8 0.8"/></filter><mask id="hzv7bq" width="2" height="2" x="-1" y="-1"><path fill="#fff" d="M75 56h8v3h-8z"/><path d="M75.803 58.784a1.614 1.614 0 0 0-.022-.616l6.949-1.688a1.622 1.622 0 0 0 .098.597z"/></mask><filter id="hzv7bp" width="76" height="71" x="41" y="22" filterUnits="userSpaceOnUse"><feOffset in="SourceGraphic" result="FeOffset2068Out"/><feGaussianBlur in="FeOffset2068Out" result="FeGaussianBlur2069Out" stdDeviation="9.6 9.6"/></filter><mask id="hzv7bs" width="2" height="2" x="-1" y="-1"><path fill="#fff" d="M75 56h8v3h-8z"/><path d="M75.803 58.784a1.614 1.614 0 0 0-.022-.616l6.949-1.688a1.622 1.622 0 0 0 .098.597z"/></mask><filter id="hzv7br" width="32" height="29" x="63" y="44" filterUnits="userSpaceOnUse"><feOffset dy="2" in="SourceGraphic" result="FeOffset2079Out"/><feGaussianBlur in="FeOffset2079Out" result="FeGaussianBlur2080Out" stdDeviation="0.8 0.8"/></filter><mask id="hzv7bu" width="2" height="2" x="-1" y="-1"><path fill="#fff" d="M84 7h11v49H84z"/><path d="M85.067 55.072a1.614 1.614 0 0 0-.588-.162l9.3-47.26c.18.088.379.144.588.16z"/></mask><filter id="hzv7bt" width="79" height="117" x="50" y="-27" filterUnits="userSpaceOnUse"><feOffset in="SourceGraphic" result="FeOffset2096Out"/><feGaussianBlur in="FeOffset2096Out" result="FeGaussianBlur2097Out" stdDeviation="9.6 9.6"/></filter><mask id="hzv7bw" width="2" height="2" x="-1" y="-1"><path fill="#fff" d="M84 7h11v49H84z"/><path d="M85.067 55.072a1.614 1.614 0 0 0-.588-.162l9.3-47.26c.18.088.379.144.588.16z"/></mask><filter id="hzv7bv" width="35" height="75" x="72" y="-5" filterUnits="userSpaceOnUse"><feOffset dy="2" in="SourceGraphic" result="FeOffset2107Out"/><feGaussianBlur in="FeOffset2107Out" result="FeGaussianBlur2108Out" stdDeviation="0.8 0.8"/></filter><mask id="hzv7by" width="2" height="2" x="-1" y="-1"><path fill="#fff" d="M94 7h11v25H94z"/><path d="M104.231 31.212a1.617 1.617 0 0 0-.55.262L94.708 7.802c.207-.029.402-.096.577-.194z"/></mask><filter id="hzv7bx" width="79" height="93" x="60" y="-27" filterUnits="userSpaceOnUse"><feOffset in="SourceGraphic" result="FeOffset2124Out"/><feGaussianBlur in="FeOffset2124Out" result="FeGaussianBlur2125Out" stdDeviation="9.6 9.6"/></filter><mask id="hzv7bA" width="2" height="2" x="-1" y="-1"><path fill="#fff" d="M94 7h11v25H94z"/><path d="M104.231 31.212a1.617 1.617 0 0 0-.55.262L94.708 7.802c.207-.029.402-.096.577-.194z"/></mask><filter id="hzv7bz" width="35" height="51" x="82" y="-5" filterUnits="userSpaceOnUse"><feOffset dy="2" in="SourceGraphic" result="FeOffset2135Out"/><feGaussianBlur in="FeOffset2135Out" result="FeGaussianBlur2136Out" stdDeviation="0.8 0.8"/></filter><mask id="hzv7bC" width="2" height="2" x="-1" y="-1"><path fill="#fff" d="M105 22h9v10h-9z"/><path d="M105.902 31.77a1.623 1.623 0 0 0-.46-.395l8.061-9.284c.126.16.281.295.458.398z"/></mask><filter id="hzv7bB" width="77" height="78" x="71" y="-12" filterUnits="userSpaceOnUse"><feOffset in="SourceGraphic" result="FeOffset2152Out"/><feGaussianBlur in="FeOffset2152Out" result="FeGaussianBlur2153Out" stdDeviation="9.6 9.6"/></filter><mask id="hzv7bE" width="2" height="2" x="-1" y="-1"><path fill="#fff" d="M105 22h9v10h-9z"/><path d="M105.902 31.77a1.623 1.623 0 0 0-.46-.395l8.061-9.284c.126.16.281.295.458.398z"/></mask><filter id="hzv7bD" width="33" height="36" x="93" y="10" filterUnits="userSpaceOnUse"><feOffset dy="2" in="SourceGraphic" result="FeOffset2163Out"/><feGaussianBlur in="FeOffset2163Out" result="FeGaussianBlur2164Out" stdDeviation="0.8 0.8"/></filter><mask id="hzv7bG" width="2" height="2" x="-1" y="-1"><path fill="#fff" d="M2 52h3v4H2z"/><path d="M3.217 55.305c.672 0 1.217-.54 1.217-1.208 0-.666-.545-1.207-1.217-1.207S2 53.43 2 54.097s.545 1.208 1.217 1.208z"/></mask><filter id="hzv7bF" width="71" height="72" x="-32" y="18" filterUnits="userSpaceOnUse"><feOffset in="SourceGraphic" result="FeOffset2182Out"/><feGaussianBlur in="FeOffset2182Out" result="FeGaussianBlur2183Out" stdDeviation="9.6 9.6"/></filter><mask id="hzv7bI" width="2" height="2" x="-1" y="-1"><path fill="#fff" d="M2 52h3v4H2z"/><path d="M3.217 55.305c.672 0 1.217-.54 1.217-1.208 0-.666-.545-1.207-1.217-1.207S2 53.43 2 54.097s.545 1.208 1.217 1.208z"/></mask><filter id="hzv7bH" width="27" height="30" x="-10" y="40" filterUnits="userSpaceOnUse"><feOffset dy="2" in="SourceGraphic" result="FeOffset2193Out"/><feGaussianBlur in="FeOffset2193Out" result="FeGaussianBlur2194Out" stdDeviation="0.8 0.8"/></filter><mask id="hzv7bK" width="2" height="2" x="-1" y="-1"><path fill="#fff" d="M12 40h3v4h-3z"/><path d="M13.357 43.235c.672 0 1.217-.54 1.217-1.208 0-.666-.545-1.207-1.217-1.207s-1.217.54-1.217 1.207.545 1.208 1.217 1.208z"/></mask><filter id="hzv7bJ" width="71" height="72" x="-22" y="6" filterUnits="userSpaceOnUse"><feOffset in="SourceGraphic" result="FeOffset2210Out"/><feGaussianBlur in="FeOffset2210Out" result="FeGaussianBlur2211Out" stdDeviation="9.6 9.6"/></filter><mask id="hzv7bM" width="2" height="2" x="-1" y="-1"><path fill="#fff" d="M12 40h3v4h-3z"/><path d="M13.357 43.235c.672 0 1.217-.54 1.217-1.208 0-.666-.545-1.207-1.217-1.207s-1.217.54-1.217 1.207.545 1.208 1.217 1.208z"/></mask><filter id="hzv7bL" width="27" height="30" x="0" y="28" filterUnits="userSpaceOnUse"><feOffset dy="2" in="SourceGraphic" result="FeOffset2221Out"/><feGaussianBlur in="FeOffset2221Out" result="FeGaussianBlur2222Out" stdDeviation="0.8 0.8"/></filter><mask id="hzv7bO" width="2" height="2" x="-1" y="-1"><path fill="#fff" d="M22 9h3v3h-3z"/><path d="M23.497 11.435c.672 0 1.217-.54 1.217-1.208 0-.666-.545-1.207-1.217-1.207s-1.217.54-1.217 1.207.545 1.208 1.217 1.208z"/></mask><filter id="hzv7bN" width="71" height="71" x="-12" y="-25" filterUnits="userSpaceOnUse"><feOffset in="SourceGraphic" result="FeOffset2238Out"/><feGaussianBlur in="FeOffset2238Out" result="FeGaussianBlur2239Out" stdDeviation="9.6 9.6"/></filter><mask id="hzv7bQ" width="2" height="2" x="-1" y="-1"><path fill="#fff" d="M22 9h3v3h-3z"/><path d="M23.497 11.435c.672 0 1.217-.54 1.217-1.208 0-.666-.545-1.207-1.217-1.207s-1.217.54-1.217 1.207.545 1.208 1.217 1.208z"/></mask><filter id="hzv7bP" width="27" height="29" x="10" y="-3" filterUnits="userSpaceOnUse"><feOffset dy="2" in="SourceGraphic" result="FeOffset2249Out"/><feGaussianBlur in="FeOffset2249Out" result="FeGaussianBlur2250Out" stdDeviation="0.8 0.8"/></filter><mask id="hzv7bS" width="2" height="2" x="-1" y="-1"><path fill="#fff" d="M32 33h3v3h-3z"/><path d="M33.647 35.585c.672 0 1.217-.54 1.217-1.208 0-.666-.545-1.207-1.217-1.207s-1.217.54-1.217 1.207.545 1.208 1.217 1.208z"/></mask><filter id="hzv7bR" width="71" height="71" x="-2" y="-1" filterUnits="userSpaceOnUse"><feOffset in="SourceGraphic" result="FeOffset2266Out"/><feGaussianBlur in="FeOffset2266Out" result="FeGaussianBlur2267Out" stdDeviation="9.6 9.6"/></filter><mask id="hzv7bU" width="2" height="2" x="-1" y="-1"><path fill="#fff" d="M32 33h3v3h-3z"/><path d="M33.647 35.585c.672 0 1.217-.54 1.217-1.208 0-.666-.545-1.207-1.217-1.207s-1.217.54-1.217 1.207.545 1.208 1.217 1.208z"/></mask><filter id="hzv7bT" width="27" height="29" x="20" y="21" filterUnits="userSpaceOnUse"><feOffset dy="2" in="SourceGraphic" result="FeOffset2277Out"/><feGaussianBlur in="FeOffset2277Out" result="FeGaussianBlur2278Out" stdDeviation="0.8 0.8"/></filter><mask id="hzv7bW" width="2" height="2" x="-1" y="-1"><path fill="#fff" d="M42 37h3v3h-3z"/><path d="M43.787 39.615c.672 0 1.217-.54 1.217-1.208 0-.666-.545-1.207-1.217-1.207s-1.217.54-1.217 1.207.545 1.208 1.217 1.208z"/></mask><filter id="hzv7bV" width="71" height="71" x="8" y="3" filterUnits="userSpaceOnUse"><feOffset in="SourceGraphic" result="FeOffset2294Out"/><feGaussianBlur in="FeOffset2294Out" result="FeGaussianBlur2295Out" stdDeviation="9.6 9.6"/></filter><mask id="hzv7bY" width="2" height="2" x="-1" y="-1"><path fill="#fff" d="M42 37h3v3h-3z"/><path d="M43.787 39.615c.672 0 1.217-.54 1.217-1.208 0-.666-.545-1.207-1.217-1.207s-1.217.54-1.217 1.207.545 1.208 1.217 1.208z"/></mask><filter id="hzv7bX" width="27" height="29" x="30" y="25" filterUnits="userSpaceOnUse"><feOffset dy="2" in="SourceGraphic" result="FeOffset2305Out"/><feGaussianBlur in="FeOffset2305Out" result="FeGaussianBlur2306Out" stdDeviation="0.8 0.8"/></filter><mask id="hzv7ca" width="2" height="2" x="-1" y="-1"><path fill="#fff" d="M52 27h4v3h-4z"/><path d="M53.927 29.555c.672 0 1.217-.54 1.217-1.208 0-.666-.545-1.207-1.217-1.207s-1.217.54-1.217 1.207.545 1.208 1.217 1.208z"/></mask><filter id="hzv7bZ" width="72" height="71" x="18" y="-7" filterUnits="userSpaceOnUse"><feOffset in="SourceGraphic" result="FeOffset2322Out"/><feGaussianBlur in="FeOffset2322Out" result="FeGaussianBlur2323Out" stdDeviation="9.6 9.6"/></filter><mask id="hzv7cc" width="2" height="2" x="-1" y="-1"><path fill="#fff" d="M52 27h4v3h-4z"/><path d="M53.927 29.555c.672 0 1.217-.54 1.217-1.208 0-.666-.545-1.207-1.217-1.207s-1.217.54-1.217 1.207.545 1.208 1.217 1.208z"/></mask><filter id="hzv7cb" width="28" height="29" x="40" y="15" filterUnits="userSpaceOnUse"><feOffset dy="2" in="SourceGraphic" result="FeOffset2333Out"/><feGaussianBlur in="FeOffset2333Out" result="FeGaussianBlur2334Out" stdDeviation="0.8 0.8"/></filter><mask id="hzv7ce" width="2" height="2" x="-1" y="-1"><path fill="#fff" d="M62 49h4v3h-4z"/><path d="M64.067 51.685c.672 0 1.217-.54 1.217-1.208 0-.666-.545-1.207-1.217-1.207s-1.217.54-1.217 1.207.545 1.208 1.217 1.208z"/></mask><filter id="hzv7cd" width="72" height="71" x="28" y="15" filterUnits="userSpaceOnUse"><feOffset in="SourceGraphic" result="FeOffset2350Out"/><feGaussianBlur in="FeOffset2350Out" result="FeGaussianBlur2351Out" stdDeviation="9.6 9.6"/></filter><mask id="hzv7cg" width="2" height="2" x="-1" y="-1"><path fill="#fff" d="M62 49h4v3h-4z"/><path d="M64.067 51.685c.672 0 1.217-.54 1.217-1.208 0-.666-.545-1.207-1.217-1.207s-1.217.54-1.217 1.207.545 1.208 1.217 1.208z"/></mask><filter id="hzv7cf" width="28" height="29" x="50" y="37" filterUnits="userSpaceOnUse"><feOffset dy="2" in="SourceGraphic" result="FeOffset2361Out"/><feGaussianBlur in="FeOffset2361Out" result="FeGaussianBlur2362Out" stdDeviation="0.8 0.8"/></filter><mask id="hzv7ci" width="2" height="2" x="-1" y="-1"><path fill="#fff" d="M73 57h3v3h-3z"/><path d="M74.217 59.735c.672 0 1.217-.54 1.217-1.208 0-.666-.545-1.207-1.217-1.207S73 57.86 73 58.527s.545 1.208 1.217 1.208z"/></mask><filter id="hzv7ch" width="71" height="71" x="39" y="23" filterUnits="userSpaceOnUse"><feOffset in="SourceGraphic" result="FeOffset2378Out"/><feGaussianBlur in="FeOffset2378Out" result="FeGaussianBlur2379Out" stdDeviation="9.6 9.6"/></filter><mask id="hzv7ck" width="2" height="2" x="-1" y="-1"><path fill="#fff" d="M73 57h3v3h-3z"/><path d="M74.217 59.735c.672 0 1.217-.54 1.217-1.208 0-.666-.545-1.207-1.217-1.207S73 57.86 73 58.527s.545 1.208 1.217 1.208z"/></mask><filter id="hzv7cj" width="27" height="29" x="61" y="45" filterUnits="userSpaceOnUse"><feOffset dy="2" in="SourceGraphic" result="FeOffset2389Out"/><feGaussianBlur in="FeOffset2389Out" result="FeGaussianBlur2390Out" stdDeviation="0.8 0.8"/></filter><mask id="hzv7cm" width="2" height="2" x="-1" y="-1"><path fill="#fff" d="M83 55h3v3h-3z"/><path d="M84.357 57.725c.672 0 1.217-.54 1.217-1.208 0-.666-.545-1.207-1.217-1.207s-1.217.54-1.217 1.207.545 1.208 1.217 1.208z"/></mask><filter id="hzv7cl" width="71" height="71" x="49" y="21" filterUnits="userSpaceOnUse"><feOffset in="SourceGraphic" result="FeOffset2406Out"/><feGaussianBlur in="FeOffset2406Out" result="FeGaussianBlur2407Out" stdDeviation="9.6 9.6"/></filter><mask id="hzv7co" width="2" height="2" x="-1" y="-1"><path fill="#fff" d="M83 55h3v3h-3z"/><path d="M84.357 57.725c.672 0 1.217-.54 1.217-1.208 0-.666-.545-1.207-1.217-1.207s-1.217.54-1.217 1.207.545 1.208 1.217 1.208z"/></mask><filter id="hzv7cn" width="27" height="29" x="71" y="43" filterUnits="userSpaceOnUse"><feOffset dy="2" in="SourceGraphic" result="FeOffset2417Out"/><feGaussianBlur in="FeOffset2417Out" result="FeGaussianBlur2418Out" stdDeviation="0.8 0.8"/></filter><mask id="hzv7cq" width="2" height="2" x="-1" y="-1"><path fill="#fff" d="M93 5h3v3h-3z"/><path d="M94.497 7.415c.672 0 1.217-.54 1.217-1.208 0-.666-.545-1.207-1.217-1.207s-1.217.54-1.217 1.207.545 1.208 1.217 1.208z"/></mask><filter id="hzv7cp" width="71" height="71" x="59" y="-29" filterUnits="userSpaceOnUse"><feOffset in="SourceGraphic" result="FeOffset2434Out"/><feGaussianBlur in="FeOffset2434Out" result="FeGaussianBlur2435Out" stdDeviation="9.6 9.6"/></filter><mask id="hzv7cs" width="2" height="2" x="-1" y="-1"><path fill="#fff" d="M93 5h3v3h-3z"/><path d="M94.497 7.415c.672 0 1.217-.54 1.217-1.208 0-.666-.545-1.207-1.217-1.207s-1.217.54-1.217 1.207.545 1.208 1.217 1.208z"/></mask><filter id="hzv7cr" width="27" height="29" x="81" y="-7" filterUnits="userSpaceOnUse"><feOffset dy="2" in="SourceGraphic" result="FeOffset2445Out"/><feGaussianBlur in="FeOffset2445Out" result="FeGaussianBlur2446Out" stdDeviation="0.8 0.8"/></filter><mask id="hzv7cu" width="2" height="2" x="-1" y="-1"><path fill="#fff" d="M103 31h3v3h-3z"/><path d="M104.637 33.975c.672 0 1.217-.54 1.217-1.208 0-.666-.545-1.207-1.217-1.207s-1.217.54-1.217 1.207.545 1.208 1.217 1.208z"/></mask><filter id="hzv7ct" width="71" height="71" x="69" y="-3" filterUnits="userSpaceOnUse"><feOffset in="SourceGraphic" result="FeOffset2462Out"/><feGaussianBlur in="FeOffset2462Out" result="FeGaussianBlur2463Out" stdDeviation="9.6 9.6"/></filter><mask id="hzv7cw" width="2" height="2" x="-1" y="-1"><path fill="#fff" d="M103 31h3v3h-3z"/><path d="M104.637 33.975c.672 0 1.217-.54 1.217-1.208 0-.666-.545-1.207-1.217-1.207s-1.217.54-1.217 1.207.545 1.208 1.217 1.208z"/></mask><filter id="hzv7cv" width="27" height="29" x="91" y="19" filterUnits="userSpaceOnUse"><feOffset dy="2" in="SourceGraphic" result="FeOffset2473Out"/><feGaussianBlur in="FeOffset2473Out" result="FeGaussianBlur2474Out" stdDeviation="0.8 0.8"/></filter><mask id="hzv7cy" width="2" height="2" x="-1" y="-1"><path fill="#fff" d="M113 19h3v4h-3z"/><path d="M114.787 22.305c.672 0 1.217-.54 1.217-1.208 0-.666-.545-1.207-1.217-1.207s-1.217.54-1.217 1.207.545 1.208 1.217 1.208z"/></mask><filter id="hzv7cx" width="71" height="72" x="79" y="-15" filterUnits="userSpaceOnUse"><feOffset in="SourceGraphic" result="FeOffset2490Out"/><feGaussianBlur in="FeOffset2490Out" result="FeGaussianBlur2491Out" stdDeviation="9.6 9.6"/></filter><mask id="hzv7cA" width="2" height="2" x="-1" y="-1"><path fill="#fff" d="M113 19h3v4h-3z"/><path d="M114.787 22.305c.672 0 1.217-.54 1.217-1.208 0-.666-.545-1.207-1.217-1.207s-1.217.54-1.217 1.207.545 1.208 1.217 1.208z"/></mask><filter id="hzv7cz" width="27" height="30" x="101" y="7" filterUnits="userSpaceOnUse"><feOffset dy="2" in="SourceGraphic" result="FeOffset2501Out"/><feGaussianBlur in="FeOffset2501Out" result="FeGaussianBlur2502Out" stdDeviation="0.8 0.8"/></filter><clipPath id="hzv7a"><path d="M32.5 65C50.45 65 65 50.45 65 32.5S50.45 0 32.5 0 0 14.55 0 32.5 14.55 65 32.5 65z"/></clipPath></defs><g><g><g><path fill="#9355de" fill-opacity=".8" d="M32.5 65C50.45 65 65 50.45 65 32.5S50.45 0 32.5 0 0 14.55 0 32.5 14.55 65 32.5 65z"/></g><g clip-path="url(#hzv7a)"><g><g><g><g filter="url(#hzv7b)"><path fill="none" d="M5.404 43.805a1.578 1.578 0 0 0-.455-.37l7.8-9.365c.113.16.258.3.424.407z" mask="url(&quot;#hzv7c&quot;)"/><path fill="#5be4f7" fill-opacity=".24" d="M5.404 43.805a1.578 1.578 0 0 0-.455-.37l7.8-9.365c.113.16.258.3.424.407z"/></g><g filter="url(#hzv7d)"><path fill="none" d="M5.404 43.805a1.578 1.578 0 0 0-.455-.37l7.8-9.365c.113.16.258.3.424.407z" mask="url(&quot;#hzv7e&quot;)"/><path fill="#47adbb" fill-opacity=".24" d="M5.404 43.805a1.578 1.578 0 0 0-.455-.37l7.8-9.365c.113.16.258.3.424.407z"/></g><path fill="#5be4f7" d="M5.404 43.805a1.578 1.578 0 0 0-.455-.37l7.8-9.365c.113.16.258.3.424.407z"/><path fill="none" stroke="#5be4f7" stroke-miterlimit="50" stroke-width=".7" d="M5.404 43.805a1.578 1.578 0 0 0-.455-.37l7.8-9.365c.113.16.258.3.424.407z"/></g><g><g filter="url(#hzv7f)"><path fill="none" d="M15.205 32.141a1.58 1.58 0 0 0-.475-.346l7.931-10.792c.123.154.275.284.448.383z" mask="url(&quot;#hzv7g&quot;)"/><path fill="#5be4f7" fill-opacity=".24" d="M15.205 32.141a1.58 1.58 0 0 0-.475-.346l7.931-10.792c.123.154.275.284.448.383z"/></g><g filter="url(#hzv7h)"><path fill="none" d="M15.205 32.141a1.58 1.58 0 0 0-.475-.346l7.931-10.792c.123.154.275.284.448.383z" mask="url(&quot;#hzv7i&quot;)"/><path fill="#47adbb" fill-opacity=".24" d="M15.205 32.141a1.58 1.58 0 0 0-.475-.346l7.931-10.792c.123.154.275.284.448.383z"/></g><path fill="#5be4f7" d="M15.205 32.141a1.58 1.58 0 0 0-.475-.346l7.931-10.792c.123.154.275.284.448.383z"/><path fill="none" stroke="#5be4f7" stroke-miterlimit="50" stroke-width=".7" d="M15.205 32.141a1.58 1.58 0 0 0-.475-.346l7.931-10.792c.123.154.275.284.448.383z"/></g><g><g filter="url(#hzv7j)"><path fill="none" d="M24.043 21.59c.203-.018.395-.073.57-.159l8.9 31.88c-.202.031-.39.1-.558.198z" mask="url(&quot;#hzv7k&quot;)"/><path fill="#5be4f7" fill-opacity=".24" d="M24.043 21.59c.203-.018.395-.073.57-.159l8.9 31.88c-.202.031-.39.1-.558.198z"/></g><g filter="url(#hzv7l)"><path fill="none" d="M24.043 21.59c.203-.018.395-.073.57-.159l8.9 31.88c-.202.031-.39.1-.558.198z" mask="url(&quot;#hzv7m&quot;)"/><path fill="#47adbb" fill-opacity=".24" d="M24.043 21.59c.203-.018.395-.073.57-.159l8.9 31.88c-.202.031-.39.1-.558.198z"/></g><path fill="#5be4f7" d="M24.043 21.59c.203-.018.395-.073.57-.159l8.9 31.88c-.202.031-.39.1-.558.198z"/><path fill="none" stroke="#5be4f7" stroke-miterlimit="50" stroke-width=".7" d="M24.043 21.59c.203-.018.395-.073.57-.159l8.9 31.88c-.202.031-.39.1-.558.198z"/></g><g><g filter="url(#hzv7n)"><path fill="none" d="M35.17 54.141a1.561 1.561 0 0 0-.361-.46l7.466-5.771c.104.166.24.313.399.43z" mask="url(&quot;#hzv7o&quot;)"/><path fill="#5be4f7" fill-opacity=".24" d="M35.17 54.141a1.561 1.561 0 0 0-.361-.46l7.466-5.771c.104.166.24.313.399.43z"/></g><g filter="url(#hzv7p)"><path fill="none" d="M35.17 54.141a1.561 1.561 0 0 0-.361-.46l7.466-5.771c.104.166.24.313.399.43z" mask="url(&quot;#hzv7q&quot;)"/><path fill="#47adbb" fill-opacity=".24" d="M35.17 54.141a1.561 1.561 0 0 0-.361-.46l7.466-5.771c.104.166.24.313.399.43z"/></g><path fill="#5be4f7" d="M35.17 54.141a1.561 1.561 0 0 0-.361-.46l7.466-5.771c.104.166.24.313.399.43z"/><path fill="none" stroke="#5be4f7" stroke-miterlimit="50" stroke-width=".7" d="M35.17 54.141a1.561 1.561 0 0 0-.361-.46l7.466-5.771c.104.166.24.313.399.43z"/></g><g><g filter="url(#hzv7r)"><path fill="none" d="M45.191 47.24c0-.215-.04-.42-.112-.61l6.82-1.342c.013.215.066.419.15.603z" mask="url(&quot;#hzv7s&quot;)"/><path fill="#5be4f7" fill-opacity=".24" d="M45.191 47.24c0-.215-.04-.42-.112-.61l6.82-1.342c.013.215.066.419.15.603z"/></g><g filter="url(#hzv7t)"><path fill="none" d="M45.191 47.24c0-.215-.04-.42-.112-.61l6.82-1.342c.013.215.066.419.15.603z" mask="url(&quot;#hzv7u&quot;)"/><path fill="#47adbb" fill-opacity=".24" d="M45.191 47.24c0-.215-.04-.42-.112-.61l6.82-1.342c.013.215.066.419.15.603z"/></g><path fill="#5be4f7" d="M45.191 47.24c0-.215-.04-.42-.112-.61l6.82-1.342c.013.215.066.419.15.603z"/><path fill="none" stroke="#5be4f7" stroke-miterlimit="50" stroke-width=".7" d="M45.191 47.24c0-.215-.04-.42-.112-.61l6.82-1.342c.013.215.066.419.15.603z"/></g><g><g filter="url(#hzv7v)"><path fill="none" d="M54.623 44.122a1.578 1.578 0 0 0-.475-.346l8.033-11.09c.135.142.296.26.476.345z" mask="url(&quot;#hzv7w&quot;)"/><path fill="#5be4f7" fill-opacity=".24" d="M54.623 44.122a1.578 1.578 0 0 0-.475-.346l8.033-11.09c.135.142.296.26.476.345z"/></g><g filter="url(#hzv7x)"><path fill="none" d="M54.623 44.122a1.578 1.578 0 0 0-.475-.346l8.033-11.09c.135.142.296.26.476.345z" mask="url(&quot;#hzv7y&quot;)"/><path fill="#47adbb" fill-opacity=".24" d="M54.623 44.122a1.578 1.578 0 0 0-.475-.346l8.033-11.09c.135.142.296.26.476.345z"/></g><path fill="#5be4f7" d="M54.623 44.122a1.578 1.578 0 0 0-.475-.346l8.033-11.09c.135.142.296.26.476.345z"/><path fill="none" stroke="#5be4f7" stroke-miterlimit="50" stroke-width=".7" d="M54.623 44.122a1.578 1.578 0 0 0-.475-.346l8.033-11.09c.135.142.296.26.476.345z"/></g><g><g filter="url(#hzv7z)"><path fill="none" d="M63.991 30.24a1.601 1.601 0 0 0-.575-.138L72.361.458c.167.102.354.174.554.21z" mask="url(&quot;#hzv7A&quot;)"/><path fill="#5be4f7" fill-opacity=".24" d="M63.991 30.24a1.601 1.601 0 0 0-.575-.138L72.361.458c.167.102.354.174.554.21z"/></g><g filter="url(#hzv7B)"><path fill="none" d="M63.991 30.24a1.601 1.601 0 0 0-.575-.138L72.361.458c.167.102.354.174.554.21z" mask="url(&quot;#hzv7C&quot;)"/><path fill="#47adbb" fill-opacity=".24" d="M63.991 30.24a1.601 1.601 0 0 0-.575-.138L72.361.458c.167.102.354.174.554.21z"/></g><path fill="#5be4f7" d="M63.991 30.24a1.601 1.601 0 0 0-.575-.138L72.361.458c.167.102.354.174.554.21z"/><path fill="none" stroke="#5be4f7" stroke-miterlimit="50" stroke-width=".7" d="M63.991 30.24a1.601 1.601 0 0 0-.575-.138L72.361.458c.167.102.354.174.554.21z"/></g><g><g filter="url(#hzv7D)"><path fill="none" d="M74.425.134a1.54 1.54 0 0 0 .277-.513l7.138 3.962c-.126.148-.224.32-.286.507z" mask="url(&quot;#hzv7E&quot;)"/><path fill="#5be4f7" fill-opacity=".24" d="M74.425.134a1.54 1.54 0 0 0 .277-.513l7.138 3.962c-.126.148-.224.32-.286.507z"/></g><g filter="url(#hzv7F)"><path fill="none" d="M74.425.134a1.54 1.54 0 0 0 .277-.513l7.138 3.962c-.126.148-.224.32-.286.507z" mask="url(&quot;#hzv7G&quot;)"/><path fill="#47adbb" fill-opacity=".24" d="M74.425.134a1.54 1.54 0 0 0 .277-.513l7.138 3.962c-.126.148-.224.32-.286.507z"/></g><path fill="#5be4f7" d="M74.425.134a1.54 1.54 0 0 0 .277-.513l7.138 3.962c-.126.148-.224.32-.286.507z"/><path fill="none" stroke="#5be4f7" stroke-miterlimit="50" stroke-width=".7" d="M74.425.134a1.54 1.54 0 0 0 .277-.513l7.138 3.962c-.126.148-.224.32-.286.507z"/></g><g><g filter="url(#hzv7H)"><path fill="none" d="M84.633 4.425a1.52 1.52 0 0 0-.166-.557l6.865-2.245c.019.199.077.387.166.557z" mask="url(&quot;#hzv7I&quot;)"/><path fill="#5be4f7" fill-opacity=".24" d="M84.633 4.425a1.52 1.52 0 0 0-.166-.557l6.865-2.245c.019.199.077.387.166.557z"/></g><g filter="url(#hzv7J)"><path fill="none" d="M84.633 4.425a1.52 1.52 0 0 0-.166-.557l6.865-2.245c.019.199.077.387.166.557z" mask="url(&quot;#hzv7K&quot;)"/><path fill="#47adbb" fill-opacity=".24" d="M84.633 4.425a1.52 1.52 0 0 0-.166-.557l6.865-2.245c.019.199.077.387.166.557z"/></g><path fill="#5be4f7" d="M84.633 4.425a1.52 1.52 0 0 0-.166-.557l6.865-2.245c.019.199.077.387.166.557z"/><path fill="none" stroke="#5be4f7" stroke-miterlimit="50" stroke-width=".7" d="M84.633 4.425a1.52 1.52 0 0 0-.166-.557l6.865-2.245c.019.199.077.387.166.557z"/></g><g><g filter="url(#hzv7L)"><path fill="none" d="M93.584 2.888c.181-.084.344-.2.48-.342l8.154 12.565c-.187.07-.358.173-.504.303z" mask="url(&quot;#hzv7M&quot;)"/><path fill="#5be4f7" fill-opacity=".24" d="M93.584 2.888c.181-.084.344-.2.48-.342l8.154 12.565c-.187.07-.358.173-.504.303z"/></g><g filter="url(#hzv7N)"><path fill="none" d="M93.584 2.888c.181-.084.344-.2.48-.342l8.154 12.565c-.187.07-.358.173-.504.303z" mask="url(&quot;#hzv7O&quot;)"/><path fill="#47adbb" fill-opacity=".24" d="M93.584 2.888c.181-.084.344-.2.48-.342l8.154 12.565c-.187.07-.358.173-.504.303z"/></g><path fill="#5be4f7" d="M93.584 2.888c.181-.084.344-.2.48-.342l8.154 12.565c-.187.07-.358.173-.504.303z"/><path fill="none" stroke="#5be4f7" stroke-miterlimit="50" stroke-width=".7" d="M93.584 2.888c.181-.084.344-.2.48-.342l8.154 12.565c-.187.07-.358.173-.504.303z"/></g><g><g filter="url(#hzv7P)"><path fill="none" stroke="#5be4f7" stroke-opacity=".24" stroke-width=".7" d="M102.595 16.757l-.105-.272.553-.205.105.271 9.268 23.994c-.201.026-.391.09-.561.183l-9.26-23.971"/></g><g filter="url(#hzv7Q)"><path fill="none" stroke="#47adbb" stroke-opacity=".24" stroke-width=".7" d="M102.595 16.757l-.105-.272.553-.205.105.271 9.268 23.994c-.201.026-.391.09-.561.183l-9.26-23.971"/></g><path fill="#5be4f7" d="M102.595 16.757l-.105-.272.553-.205.105.271 9.268 23.994c-.201.026-.391.09-.561.183l-9.26-23.971"/><path fill="none" stroke="#5be4f7" stroke-miterlimit="50" stroke-width=".7" d="M102.595 16.757l-.105-.272.553-.205.105.271 9.268 23.994c-.201.026-.391.09-.561.183l-9.26-23.971"/></g></g><g><g><g filter="url(#hzv7R)"><path fill="none" d="M4.183 45.95c.653 0 1.183-.52 1.183-1.16 0-.64-.53-1.16-1.183-1.16S3 44.15 3 44.79c0 .64.53 1.16 1.183 1.16z" mask="url(&quot;#hzv7S&quot;)"/><path fill="#5be4f7" fill-opacity=".24" d="M4.183 45.95c.653 0 1.183-.52 1.183-1.16 0-.64-.53-1.16-1.183-1.16S3 44.15 3 44.79c0 .64.53 1.16 1.183 1.16z"/></g><g filter="url(#hzv7T)"><path fill="none" d="M4.183 45.95c.653 0 1.183-.52 1.183-1.16 0-.64-.53-1.16-1.183-1.16S3 44.15 3 44.79c0 .64.53 1.16 1.183 1.16z" mask="url(&quot;#hzv7U&quot;)"/><path fill="#47adbb" fill-opacity=".24" d="M4.183 45.95c.653 0 1.183-.52 1.183-1.16 0-.64-.53-1.16-1.183-1.16S3 44.15 3 44.79c0 .64.53 1.16 1.183 1.16z"/></g><path fill="#5be4f7" d="M4.183 45.95c.653 0 1.183-.52 1.183-1.16 0-.64-.53-1.16-1.183-1.16S3 44.15 3 44.79c0 .64.53 1.16 1.183 1.16z"/><path fill="none" stroke="#5be4f7" stroke-miterlimit="50" stroke-width=".7" d="M4.183 45.95c.653 0 1.183-.52 1.183-1.16 0-.64-.53-1.16-1.183-1.16S3 44.15 3 44.79c0 .64.53 1.16 1.183 1.16z"/></g><g><g filter="url(#hzv7V)"><path fill="none" d="M14.043 34.35c.653 0 1.183-.52 1.183-1.16 0-.64-.53-1.16-1.183-1.16s-1.183.52-1.183 1.16c0 .64.53 1.16 1.183 1.16z" mask="url(&quot;#hzv7W&quot;)"/><path fill="#5be4f7" fill-opacity=".24" d="M14.043 34.35c.653 0 1.183-.52 1.183-1.16 0-.64-.53-1.16-1.183-1.16s-1.183.52-1.183 1.16c0 .64.53 1.16 1.183 1.16z"/></g><g filter="url(#hzv7X)"><path fill="none" d="M14.043 34.35c.653 0 1.183-.52 1.183-1.16 0-.64-.53-1.16-1.183-1.16s-1.183.52-1.183 1.16c0 .64.53 1.16 1.183 1.16z" mask="url(&quot;#hzv7Y&quot;)"/><path fill="#47adbb" fill-opacity=".24" d="M14.043 34.35c.653 0 1.183-.52 1.183-1.16 0-.64-.53-1.16-1.183-1.16s-1.183.52-1.183 1.16c0 .64.53 1.16 1.183 1.16z"/></g><path fill="#5be4f7" d="M14.043 34.35c.653 0 1.183-.52 1.183-1.16 0-.64-.53-1.16-1.183-1.16s-1.183.52-1.183 1.16c0 .64.53 1.16 1.183 1.16z"/><path fill="none" stroke="#5be4f7" stroke-miterlimit="50" stroke-width=".7" d="M14.043 34.35c.653 0 1.183-.52 1.183-1.16 0-.64-.53-1.16-1.183-1.16s-1.183.52-1.183 1.16c0 .64.53 1.16 1.183 1.16z"/></g><g><g filter="url(#hzv7Z)"><path fill="none" d="M23.903 21.2c.653 0 1.183-.52 1.183-1.16 0-.64-.53-1.16-1.183-1.16s-1.183.52-1.183 1.16c0 .64.53 1.16 1.183 1.16z" mask="url(&quot;#hzv7aa&quot;)"/><path fill="#5be4f7" fill-opacity=".24" d="M23.903 21.2c.653 0 1.183-.52 1.183-1.16 0-.64-.53-1.16-1.183-1.16s-1.183.52-1.183 1.16c0 .64.53 1.16 1.183 1.16z"/></g><g filter="url(#hzv7ab)"><path fill="none" d="M23.903 21.2c.653 0 1.183-.52 1.183-1.16 0-.64-.53-1.16-1.183-1.16s-1.183.52-1.183 1.16c0 .64.53 1.16 1.183 1.16z" mask="url(&quot;#hzv7ac&quot;)"/><path fill="#47adbb" fill-opacity=".24" d="M23.903 21.2c.653 0 1.183-.52 1.183-1.16 0-.64-.53-1.16-1.183-1.16s-1.183.52-1.183 1.16c0 .64.53 1.16 1.183 1.16z"/></g><path fill="#5be4f7" d="M23.903 21.2c.653 0 1.183-.52 1.183-1.16 0-.64-.53-1.16-1.183-1.16s-1.183.52-1.183 1.16c0 .64.53 1.16 1.183 1.16z"/><path fill="none" stroke="#5be4f7" stroke-miterlimit="50" stroke-width=".7" d="M23.903 21.2c.653 0 1.183-.52 1.183-1.16 0-.64-.53-1.16-1.183-1.16s-1.183.52-1.183 1.16c0 .64.53 1.16 1.183 1.16z"/></g><g><g filter="url(#hzv7ad)"><path fill="none" d="M33.763 56c.653 0 1.183-.52 1.183-1.16 0-.64-.53-1.16-1.183-1.16s-1.183.52-1.183 1.16c0 .64.53 1.16 1.183 1.16z" mask="url(&quot;#hzv7ae&quot;)"/><path fill="#5be4f7" fill-opacity=".24" d="M33.763 56c.653 0 1.183-.52 1.183-1.16 0-.64-.53-1.16-1.183-1.16s-1.183.52-1.183 1.16c0 .64.53 1.16 1.183 1.16z"/></g><g filter="url(#hzv7af)"><path fill="none" d="M33.763 56c.653 0 1.183-.52 1.183-1.16 0-.64-.53-1.16-1.183-1.16s-1.183.52-1.183 1.16c0 .64.53 1.16 1.183 1.16z" mask="url(&quot;#hzv7ag&quot;)"/><path fill="#47adbb" fill-opacity=".24" d="M33.763 56c.653 0 1.183-.52 1.183-1.16 0-.64-.53-1.16-1.183-1.16s-1.183.52-1.183 1.16c0 .64.53 1.16 1.183 1.16z"/></g><path fill="#5be4f7" d="M33.763 56c.653 0 1.183-.52 1.183-1.16 0-.64-.53-1.16-1.183-1.16s-1.183.52-1.183 1.16c0 .64.53 1.16 1.183 1.16z"/><path fill="none" stroke="#5be4f7" stroke-miterlimit="50" stroke-width=".7" d="M33.763 56c.653 0 1.183-.52 1.183-1.16 0-.64-.53-1.16-1.183-1.16s-1.183.52-1.183 1.16c0 .64.53 1.16 1.183 1.16z"/></g><g><g filter="url(#hzv7ah)"><path fill="none" d="M43.613 48.27c.653 0 1.183-.52 1.183-1.16 0-.64-.53-1.16-1.183-1.16s-1.183.52-1.183 1.16c0 .64.53 1.16 1.183 1.16z" mask="url(&quot;#hzv7ai&quot;)"/><path fill="#5be4f7" fill-opacity=".24" d="M43.613 48.27c.653 0 1.183-.52 1.183-1.16 0-.64-.53-1.16-1.183-1.16s-1.183.52-1.183 1.16c0 .64.53 1.16 1.183 1.16z"/></g><g filter="url(#hzv7aj)"><path fill="none" d="M43.613 48.27c.653 0 1.183-.52 1.183-1.16 0-.64-.53-1.16-1.183-1.16s-1.183.52-1.183 1.16c0 .64.53 1.16 1.183 1.16z" mask="url(&quot;#hzv7ak&quot;)"/><path fill="#47adbb" fill-opacity=".24" d="M43.613 48.27c.653 0 1.183-.52 1.183-1.16 0-.64-.53-1.16-1.183-1.16s-1.183.52-1.183 1.16c0 .64.53 1.16 1.183 1.16z"/></g><path fill="#5be4f7" d="M43.613 48.27c.653 0 1.183-.52 1.183-1.16 0-.64-.53-1.16-1.183-1.16s-1.183.52-1.183 1.16c0 .64.53 1.16 1.183 1.16z"/><path fill="none" stroke="#5be4f7" stroke-miterlimit="50" stroke-width=".7" d="M43.613 48.27c.653 0 1.183-.52 1.183-1.16 0-.64-.53-1.16-1.183-1.16s-1.183.52-1.183 1.16c0 .64.53 1.16 1.183 1.16z"/></g><g><g filter="url(#hzv7al)"><path fill="none" d="M53.473 46.33c.653 0 1.183-.52 1.183-1.16 0-.64-.53-1.16-1.183-1.16s-1.183.52-1.183 1.16c0 .64.53 1.16 1.183 1.16z" mask="url(&quot;#hzv7am&quot;)"/><path fill="#5be4f7" fill-opacity=".24" d="M53.473 46.33c.653 0 1.183-.52 1.183-1.16 0-.64-.53-1.16-1.183-1.16s-1.183.52-1.183 1.16c0 .64.53 1.16 1.183 1.16z"/></g><g filter="url(#hzv7an)"><path fill="none" d="M53.473 46.33c.653 0 1.183-.52 1.183-1.16 0-.64-.53-1.16-1.183-1.16s-1.183.52-1.183 1.16c0 .64.53 1.16 1.183 1.16z" mask="url(&quot;#hzv7ao&quot;)"/><path fill="#47adbb" fill-opacity=".24" d="M53.473 46.33c.653 0 1.183-.52 1.183-1.16 0-.64-.53-1.16-1.183-1.16s-1.183.52-1.183 1.16c0 .64.53 1.16 1.183 1.16z"/></g><path fill="#5be4f7" d="M53.473 46.33c.653 0 1.183-.52 1.183-1.16 0-.64-.53-1.16-1.183-1.16s-1.183.52-1.183 1.16c0 .64.53 1.16 1.183 1.16z"/><path fill="none" stroke="#5be4f7" stroke-miterlimit="50" stroke-width=".7" d="M53.473 46.33c.653 0 1.183-.52 1.183-1.16 0-.64-.53-1.16-1.183-1.16s-1.183.52-1.183 1.16c0 .64.53 1.16 1.183 1.16z"/></g><g><g filter="url(#hzv7ap)"><path fill="none" d="M63.333 32.8c.653 0 1.183-.52 1.183-1.16 0-.64-.53-1.16-1.183-1.16s-1.183.52-1.183 1.16c0 .64.53 1.16 1.183 1.16z" mask="url(&quot;#hzv7aq&quot;)"/><path fill="#5be4f7" fill-opacity=".24" d="M63.333 32.8c.653 0 1.183-.52 1.183-1.16 0-.64-.53-1.16-1.183-1.16s-1.183.52-1.183 1.16c0 .64.53 1.16 1.183 1.16z"/></g><g filter="url(#hzv7ar)"><path fill="none" d="M63.333 32.8c.653 0 1.183-.52 1.183-1.16 0-.64-.53-1.16-1.183-1.16s-1.183.52-1.183 1.16c0 .64.53 1.16 1.183 1.16z" mask="url(&quot;#hzv7as&quot;)"/><path fill="#47adbb" fill-opacity=".24" d="M63.333 32.8c.653 0 1.183-.52 1.183-1.16 0-.64-.53-1.16-1.183-1.16s-1.183.52-1.183 1.16c0 .64.53 1.16 1.183 1.16z"/></g><path fill="#5be4f7" d="M63.333 32.8c.653 0 1.183-.52 1.183-1.16 0-.64-.53-1.16-1.183-1.16s-1.183.52-1.183 1.16c0 .64.53 1.16 1.183 1.16z"/><path fill="none" stroke="#5be4f7" stroke-miterlimit="50" stroke-width=".7" d="M63.333 32.8c.653 0 1.183-.52 1.183-1.16 0-.64-.53-1.16-1.183-1.16s-1.183.52-1.183 1.16c0 .64.53 1.16 1.183 1.16z"/></g><g><g filter="url(#hzv7at)"><path fill="none" d="M73.193.32c.653 0 1.183-.52 1.183-1.16 0-.64-.53-1.16-1.183-1.16s-1.183.52-1.183 1.16c0 .64.53 1.16 1.183 1.16z" mask="url(&quot;#hzv7au&quot;)"/><path fill="#5be4f7" fill-opacity=".24" d="M73.193.32c.653 0 1.183-.52 1.183-1.16 0-.64-.53-1.16-1.183-1.16s-1.183.52-1.183 1.16c0 .64.53 1.16 1.183 1.16z"/></g><g filter="url(#hzv7av)"><path fill="none" d="M73.193.32c.653 0 1.183-.52 1.183-1.16 0-.64-.53-1.16-1.183-1.16s-1.183.52-1.183 1.16c0 .64.53 1.16 1.183 1.16z" mask="url(&quot;#hzv7aw&quot;)"/><path fill="#47adbb" fill-opacity=".24" d="M73.193.32c.653 0 1.183-.52 1.183-1.16 0-.64-.53-1.16-1.183-1.16s-1.183.52-1.183 1.16c0 .64.53 1.16 1.183 1.16z"/></g><path fill="#5be4f7" d="M73.193.32c.653 0 1.183-.52 1.183-1.16 0-.64-.53-1.16-1.183-1.16s-1.183.52-1.183 1.16c0 .64.53 1.16 1.183 1.16z"/><path fill="none" stroke="#5be4f7" stroke-miterlimit="50" stroke-width=".7" d="M73.193.32c.653 0 1.183-.52 1.183-1.16 0-.64-.53-1.16-1.183-1.16s-1.183.52-1.183 1.16c0 .64.53 1.16 1.183 1.16z"/></g><g><g filter="url(#hzv7ax)"><path fill="none" d="M83.053 5.73c.653 0 1.183-.52 1.183-1.16 0-.64-.53-1.16-1.183-1.16s-1.183.52-1.183 1.16c0 .64.53 1.16 1.183 1.16z" mask="url(&quot;#hzv7ay&quot;)"/><path fill="#5be4f7" fill-opacity=".24" d="M83.053 5.73c.653 0 1.183-.52 1.183-1.16 0-.64-.53-1.16-1.183-1.16s-1.183.52-1.183 1.16c0 .64.53 1.16 1.183 1.16z"/></g><g filter="url(#hzv7az)"><path fill="none" d="M83.053 5.73c.653 0 1.183-.52 1.183-1.16 0-.64-.53-1.16-1.183-1.16s-1.183.52-1.183 1.16c0 .64.53 1.16 1.183 1.16z" mask="url(&quot;#hzv7aA&quot;)"/><path fill="#47adbb" fill-opacity=".24" d="M83.053 5.73c.653 0 1.183-.52 1.183-1.16 0-.64-.53-1.16-1.183-1.16s-1.183.52-1.183 1.16c0 .64.53 1.16 1.183 1.16z"/></g><path fill="#5be4f7" d="M83.053 5.73c.653 0 1.183-.52 1.183-1.16 0-.64-.53-1.16-1.183-1.16s-1.183.52-1.183 1.16c0 .64.53 1.16 1.183 1.16z"/><path fill="none" stroke="#5be4f7" stroke-miterlimit="50" stroke-width=".7" d="M83.053 5.73c.653 0 1.183-.52 1.183-1.16 0-.64-.53-1.16-1.183-1.16s-1.183.52-1.183 1.16c0 .64.53 1.16 1.183 1.16z"/></g><g><g filter="url(#hzv7aB)"><path fill="none" d="M92.913 2.64c.653 0 1.183-.52 1.183-1.16 0-.64-.53-1.16-1.183-1.16S91.73.84 91.73 1.48c0 .64.53 1.16 1.183 1.16z" mask="url(&quot;#hzv7aC&quot;)"/><path fill="#5be4f7" fill-opacity=".24" d="M92.913 2.64c.653 0 1.183-.52 1.183-1.16 0-.64-.53-1.16-1.183-1.16S91.73.84 91.73 1.48c0 .64.53 1.16 1.183 1.16z"/></g><g filter="url(#hzv7aD)"><path fill="none" d="M92.913 2.64c.653 0 1.183-.52 1.183-1.16 0-.64-.53-1.16-1.183-1.16S91.73.84 91.73 1.48c0 .64.53 1.16 1.183 1.16z" mask="url(&quot;#hzv7aE&quot;)"/><path fill="#47adbb" fill-opacity=".24" d="M92.913 2.64c.653 0 1.183-.52 1.183-1.16 0-.64-.53-1.16-1.183-1.16S91.73.84 91.73 1.48c0 .64.53 1.16 1.183 1.16z"/></g><path fill="#5be4f7" d="M92.913 2.64c.653 0 1.183-.52 1.183-1.16 0-.64-.53-1.16-1.183-1.16S91.73.84 91.73 1.48c0 .64.53 1.16 1.183 1.16z"/><path fill="none" stroke="#5be4f7" stroke-miterlimit="50" stroke-width=".7" d="M92.913 2.64c.653 0 1.183-.52 1.183-1.16 0-.64-.53-1.16-1.183-1.16S91.73.84 91.73 1.48c0 .64.53 1.16 1.183 1.16z"/></g><g><g filter="url(#hzv7aF)"><path fill="none" d="M102.773 17.72c.653 0 1.183-.52 1.183-1.16 0-.64-.53-1.16-1.183-1.16s-1.183.52-1.183 1.16c0 .64.53 1.16 1.183 1.16z" mask="url(&quot;#hzv7aG&quot;)"/><path fill="#5be4f7" fill-opacity=".24" d="M102.773 17.72c.653 0 1.183-.52 1.183-1.16 0-.64-.53-1.16-1.183-1.16s-1.183.52-1.183 1.16c0 .64.53 1.16 1.183 1.16z"/></g><g filter="url(#hzv7aH)"><path fill="none" d="M102.773 17.72c.653 0 1.183-.52 1.183-1.16 0-.64-.53-1.16-1.183-1.16s-1.183.52-1.183 1.16c0 .64.53 1.16 1.183 1.16z" mask="url(&quot;#hzv7aI&quot;)"/><path fill="#47adbb" fill-opacity=".24" d="M102.773 17.72c.653 0 1.183-.52 1.183-1.16 0-.64-.53-1.16-1.183-1.16s-1.183.52-1.183 1.16c0 .64.53 1.16 1.183 1.16z"/></g><path fill="#5be4f7" d="M102.773 17.72c.653 0 1.183-.52 1.183-1.16 0-.64-.53-1.16-1.183-1.16s-1.183.52-1.183 1.16c0 .64.53 1.16 1.183 1.16z"/><path fill="none" stroke="#5be4f7" stroke-miterlimit="50" stroke-width=".7" d="M102.773 17.72c.653 0 1.183-.52 1.183-1.16 0-.64-.53-1.16-1.183-1.16s-1.183.52-1.183 1.16c0 .64.53 1.16 1.183 1.16z"/></g><g><g filter="url(#hzv7aJ)"><path fill="none" d="M112.633 43.24c.653 0 1.183-.52 1.183-1.16 0-.64-.53-1.16-1.183-1.16s-1.183.52-1.183 1.16c0 .64.53 1.16 1.183 1.16z" mask="url(&quot;#hzv7aK&quot;)"/><path fill="#5be4f7" fill-opacity=".24" d="M112.633 43.24c.653 0 1.183-.52 1.183-1.16 0-.64-.53-1.16-1.183-1.16s-1.183.52-1.183 1.16c0 .64.53 1.16 1.183 1.16z"/></g><g filter="url(#hzv7aL)"><path fill="none" d="M112.633 43.24c.653 0 1.183-.52 1.183-1.16 0-.64-.53-1.16-1.183-1.16s-1.183.52-1.183 1.16c0 .64.53 1.16 1.183 1.16z" mask="url(&quot;#hzv7aM&quot;)"/><path fill="#47adbb" fill-opacity=".24" d="M112.633 43.24c.653 0 1.183-.52 1.183-1.16 0-.64-.53-1.16-1.183-1.16s-1.183.52-1.183 1.16c0 .64.53 1.16 1.183 1.16z"/></g><path fill="#5be4f7" d="M112.633 43.24c.653 0 1.183-.52 1.183-1.16 0-.64-.53-1.16-1.183-1.16s-1.183.52-1.183 1.16c0 .64.53 1.16 1.183 1.16z"/><path fill="none" stroke="#5be4f7" stroke-miterlimit="50" stroke-width=".7" d="M112.633 43.24c.653 0 1.183-.52 1.183-1.16 0-.64-.53-1.16-1.183-1.16s-1.183.52-1.183 1.16c0 .64.53 1.16 1.183 1.16z"/></g></g></g><g><g><g><g filter="url(#hzv7aN)"><path fill="none" d="M4.478 53.091a1.627 1.627 0 0 0-.464-.39l8.077-9.666c.128.158.285.291.463.392z" mask="url(&quot;#hzv7aO&quot;)"/><path fill="#f6f5a6" fill-opacity=".24" d="M4.478 53.091a1.627 1.627 0 0 0-.464-.39l8.077-9.666c.128.158.285.291.463.392z"/></g><g filter="url(#hzv7aP)"><path fill="none" d="M4.478 53.091a1.627 1.627 0 0 0-.464-.39l8.077-9.666c.128.158.285.291.463.392z" mask="url(&quot;#hzv7aQ&quot;)"/><path fill="#909063" fill-opacity=".24" d="M4.478 53.091a1.627 1.627 0 0 0-.464-.39l8.077-9.666c.128.158.285.291.463.392z"/></g><path fill="#f6f5a6" d="M4.478 53.091a1.627 1.627 0 0 0-.464-.39l8.077-9.666c.128.158.285.291.463.392z"/><path fill="none" stroke="#f6f5a6" stroke-miterlimit="50" stroke-width=".7" d="M4.478 53.091a1.627 1.627 0 0 0-.464-.39l8.077-9.666c.128.158.285.291.463.392z"/></g><g><g filter="url(#hzv7aR)"><path fill="none" d="M14.181 40.646a1.612 1.612 0 0 0-.572-.206l9.018-28.85c.17.109.362.186.567.225z" mask="url(&quot;#hzv7aS&quot;)"/><path fill="#f6f5a6" fill-opacity=".24" d="M14.181 40.646a1.612 1.612 0 0 0-.572-.206l9.018-28.85c.17.109.362.186.567.225z"/></g><g filter="url(#hzv7aT)"><path fill="none" d="M14.181 40.646a1.612 1.612 0 0 0-.572-.206l9.018-28.85c.17.109.362.186.567.225z" mask="url(&quot;#hzv7aU&quot;)"/><path fill="#909063" fill-opacity=".24" d="M14.181 40.646a1.612 1.612 0 0 0-.572-.206l9.018-28.85c.17.109.362.186.567.225z"/></g><path fill="#f6f5a6" d="M14.181 40.646a1.612 1.612 0 0 0-.572-.206l9.018-28.85c.17.109.362.186.567.225z"/><path fill="none" stroke="#f6f5a6" stroke-miterlimit="50" stroke-width=".7" d="M14.181 40.646a1.612 1.612 0 0 0-.572-.206l9.018-28.85c.17.109.362.186.567.225z"/></g><g><g filter="url(#hzv7aV)"><path fill="none" d="M23.95 11.776c.2-.057.384-.152.544-.275l8.804 21.303a1.613 1.613 0 0 0-.56.235z" mask="url(&quot;#hzv7aW&quot;)"/><path fill="#f6f5a6" fill-opacity=".24" d="M23.95 11.776c.2-.057.384-.152.544-.275l8.804 21.303a1.613 1.613 0 0 0-.56.235z"/></g><g filter="url(#hzv7aX)"><path fill="none" d="M23.95 11.776c.2-.057.384-.152.544-.275l8.804 21.303a1.613 1.613 0 0 0-.56.235z" mask="url(&quot;#hzv7aY&quot;)"/><path fill="#909063" fill-opacity=".24" d="M23.95 11.776c.2-.057.384-.152.544-.275l8.804 21.303a1.613 1.613 0 0 0-.56.235z"/></g><path fill="#f6f5a6" d="M23.95 11.776c.2-.057.384-.152.544-.275l8.804 21.303a1.613 1.613 0 0 0-.56.235z"/><path fill="none" stroke="#f6f5a6" stroke-miterlimit="50" stroke-width=".7" d="M23.95 11.776c.2-.057.384-.152.544-.275l8.804 21.303a1.613 1.613 0 0 0-.56.235z"/></g><g><g filter="url(#hzv7aZ)"><path fill="none" d="M35.03 35.216c.105-.17.178-.362.213-.566l7.154 2.922c-.105.17-.178.362-.213.566z" mask="url(&quot;#hzv7ba&quot;)"/><path fill="#f6f5a6" fill-opacity=".24" d="M35.03 35.216c.105-.17.178-.362.213-.566l7.154 2.922c-.105.17-.178.362-.213.566z"/></g><g filter="url(#hzv7bb)"><path fill="none" d="M35.03 35.216c.105-.17.178-.362.213-.566l7.154 2.922c-.105.17-.178.362-.213.566z" mask="url(&quot;#hzv7bc&quot;)"/><path fill="#909063" fill-opacity=".24" d="M35.03 35.216c.105-.17.178-.362.213-.566l7.154 2.922c-.105.17-.178.362-.213.566z"/></g><path fill="#f6f5a6" d="M35.03 35.216c.105-.17.178-.362.213-.566l7.154 2.922c-.105.17-.178.362-.213.566z"/><path fill="none" stroke="#f6f5a6" stroke-miterlimit="50" stroke-width=".7" d="M35.03 35.216c.105-.17.178-.362.213-.566l7.154 2.922c-.105.17-.178.362-.213.566z"/></g><g><g filter="url(#hzv7bd)"><path fill="none" d="M45.186 37.596a1.62 1.62 0 0 0-.4-.458l7.743-7.989c.104.177.24.332.4.458z" mask="url(&quot;#hzv7be&quot;)"/><path fill="#f6f5a6" fill-opacity=".24" d="M45.186 37.596a1.62 1.62 0 0 0-.4-.458l7.743-7.989c.104.177.24.332.4.458z"/></g><g filter="url(#hzv7bf)"><path fill="none" d="M45.186 37.596a1.62 1.62 0 0 0-.4-.458l7.743-7.989c.104.177.24.332.4.458z" mask="url(&quot;#hzv7bg&quot;)"/><path fill="#909063" fill-opacity=".24" d="M45.186 37.596a1.62 1.62 0 0 0-.4-.458l7.743-7.989c.104.177.24.332.4.458z"/></g><path fill="#f6f5a6" d="M45.186 37.596a1.62 1.62 0 0 0-.4-.458l7.743-7.989c.104.177.24.332.4.458z"/><path fill="none" stroke="#f6f5a6" stroke-miterlimit="50" stroke-width=".7" d="M45.186 37.596a1.62 1.62 0 0 0-.4-.458l7.743-7.989c.104.177.24.332.4.458z"/></g><g><g filter="url(#hzv7bh)"><path fill="none" d="M54.27 29.914c.203-.044.392-.126.56-.238l8.903 19.226a1.62 1.62 0 0 0-.56.235z" mask="url(&quot;#hzv7bi&quot;)"/><path fill="#f6f5a6" fill-opacity=".24" d="M54.27 29.914c.203-.044.392-.126.56-.238l8.903 19.226a1.62 1.62 0 0 0-.56.235z"/></g><g filter="url(#hzv7bj)"><path fill="none" d="M54.27 29.914c.203-.044.392-.126.56-.238l8.903 19.226a1.62 1.62 0 0 0-.56.235z" mask="url(&quot;#hzv7bk&quot;)"/><path fill="#909063" fill-opacity=".24" d="M54.27 29.914c.203-.044.392-.126.56-.238l8.903 19.226a1.62 1.62 0 0 0-.56.235z"/></g><path fill="#f6f5a6" d="M54.27 29.914c.203-.044.392-.126.56-.238l8.903 19.226a1.62 1.62 0 0 0-.56.235z"/><path fill="none" stroke="#f6f5a6" stroke-miterlimit="50" stroke-width=".7" d="M54.27 29.914c.203-.044.392-.126.56-.238l8.903 19.226a1.62 1.62 0 0 0-.56.235z"/></g><g><g filter="url(#hzv7bl)"><path fill="none" d="M65.11 51.72a1.62 1.62 0 0 0 .38-.47l7.653 6.068a1.619 1.619 0 0 0-.372.479z" mask="url(&quot;#hzv7bm&quot;)"/><path fill="#f6f5a6" fill-opacity=".24" d="M65.11 51.72a1.62 1.62 0 0 0 .38-.47l7.653 6.068a1.619 1.619 0 0 0-.372.479z"/></g><g filter="url(#hzv7bn)"><path fill="none" d="M65.11 51.72a1.62 1.62 0 0 0 .38-.47l7.653 6.068a1.619 1.619 0 0 0-.372.479z" mask="url(&quot;#hzv7bo&quot;)"/><path fill="#909063" fill-opacity=".24" d="M65.11 51.72a1.62 1.62 0 0 0 .38-.47l7.653 6.068a1.619 1.619 0 0 0-.372.479z"/></g><path fill="#f6f5a6" d="M65.11 51.72a1.62 1.62 0 0 0 .38-.47l7.653 6.068a1.619 1.619 0 0 0-.372.479z"/><path fill="none" stroke="#f6f5a6" stroke-miterlimit="50" stroke-width=".7" d="M65.11 51.72a1.62 1.62 0 0 0 .38-.47l7.653 6.068a1.619 1.619 0 0 0-.372.479z"/></g><g><g filter="url(#hzv7bp)"><path fill="none" d="M75.803 58.784a1.614 1.614 0 0 0-.022-.616l6.949-1.688a1.622 1.622 0 0 0 .098.597z" mask="url(&quot;#hzv7bq&quot;)"/><path fill="#f6f5a6" fill-opacity=".24" d="M75.803 58.784a1.614 1.614 0 0 0-.022-.616l6.949-1.688a1.622 1.622 0 0 0 .098.597z"/></g><g filter="url(#hzv7br)"><path fill="none" d="M75.803 58.784a1.614 1.614 0 0 0-.022-.616l6.949-1.688a1.622 1.622 0 0 0 .098.597z" mask="url(&quot;#hzv7bs&quot;)"/><path fill="#909063" fill-opacity=".24" d="M75.803 58.784a1.614 1.614 0 0 0-.022-.616l6.949-1.688a1.622 1.622 0 0 0 .098.597z"/></g><path fill="#f6f5a6" d="M75.803 58.784a1.614 1.614 0 0 0-.022-.616l6.949-1.688a1.622 1.622 0 0 0 .098.597z"/><path fill="none" stroke="#f6f5a6" stroke-miterlimit="50" stroke-width=".7" d="M75.803 58.784a1.614 1.614 0 0 0-.022-.616l6.949-1.688a1.622 1.622 0 0 0 .098.597z"/></g><g><g filter="url(#hzv7bt)"><path fill="none" d="M85.067 55.072a1.614 1.614 0 0 0-.588-.162l9.3-47.26c.18.088.379.144.588.16z" mask="url(&quot;#hzv7bu&quot;)"/><path fill="#f6f5a6" fill-opacity=".24" d="M85.067 55.072a1.614 1.614 0 0 0-.588-.162l9.3-47.26c.18.088.379.144.588.16z"/></g><g filter="url(#hzv7bv)"><path fill="none" d="M85.067 55.072a1.614 1.614 0 0 0-.588-.162l9.3-47.26c.18.088.379.144.588.16z" mask="url(&quot;#hzv7bw&quot;)"/><path fill="#909063" fill-opacity=".24" d="M85.067 55.072a1.614 1.614 0 0 0-.588-.162l9.3-47.26c.18.088.379.144.588.16z"/></g><path fill="#f6f5a6" d="M85.067 55.072a1.614 1.614 0 0 0-.588-.162l9.3-47.26c.18.088.379.144.588.16z"/><path fill="none" stroke="#f6f5a6" stroke-miterlimit="50" stroke-width=".7" d="M85.067 55.072a1.614 1.614 0 0 0-.588-.162l9.3-47.26c.18.088.379.144.588.16z"/></g><g><g filter="url(#hzv7bx)"><path fill="none" d="M104.231 31.212a1.617 1.617 0 0 0-.55.262L94.708 7.802c.207-.029.402-.096.577-.194z" mask="url(&quot;#hzv7by&quot;)"/><path fill="#f6f5a6" fill-opacity=".24" d="M104.231 31.212a1.617 1.617 0 0 0-.55.262L94.708 7.802c.207-.029.402-.096.577-.194z"/></g><g filter="url(#hzv7bz)"><path fill="none" d="M104.231 31.212a1.617 1.617 0 0 0-.55.262L94.708 7.802c.207-.029.402-.096.577-.194z" mask="url(&quot;#hzv7bA&quot;)"/><path fill="#909063" fill-opacity=".24" d="M104.231 31.212a1.617 1.617 0 0 0-.55.262L94.708 7.802c.207-.029.402-.096.577-.194z"/></g><path fill="#f6f5a6" d="M104.231 31.212a1.617 1.617 0 0 0-.55.262L94.708 7.802c.207-.029.402-.096.577-.194z"/><path fill="none" stroke="#f6f5a6" stroke-miterlimit="50" stroke-width=".7" d="M104.231 31.212a1.617 1.617 0 0 0-.55.262L94.708 7.802c.207-.029.402-.096.577-.194z"/></g><g><g filter="url(#hzv7bB)"><path fill="none" d="M105.902 31.77a1.623 1.623 0 0 0-.46-.395l8.061-9.284c.126.16.281.295.458.398z" mask="url(&quot;#hzv7bC&quot;)"/><path fill="#f6f5a6" fill-opacity=".24" d="M105.902 31.77a1.623 1.623 0 0 0-.46-.395l8.061-9.284c.126.16.281.295.458.398z"/></g><g filter="url(#hzv7bD)"><path fill="none" d="M105.902 31.77a1.623 1.623 0 0 0-.46-.395l8.061-9.284c.126.16.281.295.458.398z" mask="url(&quot;#hzv7bE&quot;)"/><path fill="#909063" fill-opacity=".24" d="M105.902 31.77a1.623 1.623 0 0 0-.46-.395l8.061-9.284c.126.16.281.295.458.398z"/></g><path fill="#f6f5a6" d="M105.902 31.77a1.623 1.623 0 0 0-.46-.395l8.061-9.284c.126.16.281.295.458.398z"/><path fill="none" stroke="#f6f5a6" stroke-miterlimit="50" stroke-width=".7" d="M105.902 31.77a1.623 1.623 0 0 0-.46-.395l8.061-9.284c.126.16.281.295.458.398z"/></g></g><g><g><g filter="url(#hzv7bF)"><path fill="none" d="M3.217 55.305c.672 0 1.217-.54 1.217-1.208 0-.666-.545-1.207-1.217-1.207S2 53.43 2 54.097s.545 1.208 1.217 1.208z" mask="url(&quot;#hzv7bG&quot;)"/><path fill="#f6f5a6" fill-opacity=".24" d="M3.217 55.305c.672 0 1.217-.54 1.217-1.208 0-.666-.545-1.207-1.217-1.207S2 53.43 2 54.097s.545 1.208 1.217 1.208z"/></g><g filter="url(#hzv7bH)"><path fill="none" d="M3.217 55.305c.672 0 1.217-.54 1.217-1.208 0-.666-.545-1.207-1.217-1.207S2 53.43 2 54.097s.545 1.208 1.217 1.208z" mask="url(&quot;#hzv7bI&quot;)"/><path fill="#909063" fill-opacity=".24" d="M3.217 55.305c.672 0 1.217-.54 1.217-1.208 0-.666-.545-1.207-1.217-1.207S2 53.43 2 54.097s.545 1.208 1.217 1.208z"/></g><path fill="#f6f5a6" d="M3.217 55.305c.672 0 1.217-.54 1.217-1.208 0-.666-.545-1.207-1.217-1.207S2 53.43 2 54.097s.545 1.208 1.217 1.208z"/><path fill="none" stroke="#f6f5a6" stroke-miterlimit="50" stroke-width=".7" d="M3.217 55.305c.672 0 1.217-.54 1.217-1.208 0-.666-.545-1.207-1.217-1.207S2 53.43 2 54.097s.545 1.208 1.217 1.208z"/></g><g><g filter="url(#hzv7bJ)"><path fill="none" d="M13.357 43.235c.672 0 1.217-.54 1.217-1.208 0-.666-.545-1.207-1.217-1.207s-1.217.54-1.217 1.207.545 1.208 1.217 1.208z" mask="url(&quot;#hzv7bK&quot;)"/><path fill="#f6f5a6" fill-opacity=".24" d="M13.357 43.235c.672 0 1.217-.54 1.217-1.208 0-.666-.545-1.207-1.217-1.207s-1.217.54-1.217 1.207.545 1.208 1.217 1.208z"/></g><g filter="url(#hzv7bL)"><path fill="none" d="M13.357 43.235c.672 0 1.217-.54 1.217-1.208 0-.666-.545-1.207-1.217-1.207s-1.217.54-1.217 1.207.545 1.208 1.217 1.208z" mask="url(&quot;#hzv7bM&quot;)"/><path fill="#909063" fill-opacity=".24" d="M13.357 43.235c.672 0 1.217-.54 1.217-1.208 0-.666-.545-1.207-1.217-1.207s-1.217.54-1.217 1.207.545 1.208 1.217 1.208z"/></g><path fill="#f6f5a6" d="M13.357 43.235c.672 0 1.217-.54 1.217-1.208 0-.666-.545-1.207-1.217-1.207s-1.217.54-1.217 1.207.545 1.208 1.217 1.208z"/><path fill="none" stroke="#f6f5a6" stroke-miterlimit="50" stroke-width=".7" d="M13.357 43.235c.672 0 1.217-.54 1.217-1.208 0-.666-.545-1.207-1.217-1.207s-1.217.54-1.217 1.207.545 1.208 1.217 1.208z"/></g><g><g filter="url(#hzv7bN)"><path fill="none" d="M23.497 11.435c.672 0 1.217-.54 1.217-1.208 0-.666-.545-1.207-1.217-1.207s-1.217.54-1.217 1.207.545 1.208 1.217 1.208z" mask="url(&quot;#hzv7bO&quot;)"/><path fill="#f6f5a6" fill-opacity=".24" d="M23.497 11.435c.672 0 1.217-.54 1.217-1.208 0-.666-.545-1.207-1.217-1.207s-1.217.54-1.217 1.207.545 1.208 1.217 1.208z"/></g><g filter="url(#hzv7bP)"><path fill="none" d="M23.497 11.435c.672 0 1.217-.54 1.217-1.208 0-.666-.545-1.207-1.217-1.207s-1.217.54-1.217 1.207.545 1.208 1.217 1.208z" mask="url(&quot;#hzv7bQ&quot;)"/><path fill="#909063" fill-opacity=".24" d="M23.497 11.435c.672 0 1.217-.54 1.217-1.208 0-.666-.545-1.207-1.217-1.207s-1.217.54-1.217 1.207.545 1.208 1.217 1.208z"/></g><path fill="#f6f5a6" d="M23.497 11.435c.672 0 1.217-.54 1.217-1.208 0-.666-.545-1.207-1.217-1.207s-1.217.54-1.217 1.207.545 1.208 1.217 1.208z"/><path fill="none" stroke="#f6f5a6" stroke-miterlimit="50" stroke-width=".7" d="M23.497 11.435c.672 0 1.217-.54 1.217-1.208 0-.666-.545-1.207-1.217-1.207s-1.217.54-1.217 1.207.545 1.208 1.217 1.208z"/></g><g><g filter="url(#hzv7bR)"><path fill="none" d="M33.647 35.585c.672 0 1.217-.54 1.217-1.208 0-.666-.545-1.207-1.217-1.207s-1.217.54-1.217 1.207.545 1.208 1.217 1.208z" mask="url(&quot;#hzv7bS&quot;)"/><path fill="#f6f5a6" fill-opacity=".24" d="M33.647 35.585c.672 0 1.217-.54 1.217-1.208 0-.666-.545-1.207-1.217-1.207s-1.217.54-1.217 1.207.545 1.208 1.217 1.208z"/></g><g filter="url(#hzv7bT)"><path fill="none" d="M33.647 35.585c.672 0 1.217-.54 1.217-1.208 0-.666-.545-1.207-1.217-1.207s-1.217.54-1.217 1.207.545 1.208 1.217 1.208z" mask="url(&quot;#hzv7bU&quot;)"/><path fill="#909063" fill-opacity=".24" d="M33.647 35.585c.672 0 1.217-.54 1.217-1.208 0-.666-.545-1.207-1.217-1.207s-1.217.54-1.217 1.207.545 1.208 1.217 1.208z"/></g><path fill="#f6f5a6" d="M33.647 35.585c.672 0 1.217-.54 1.217-1.208 0-.666-.545-1.207-1.217-1.207s-1.217.54-1.217 1.207.545 1.208 1.217 1.208z"/><path fill="none" stroke="#f6f5a6" stroke-miterlimit="50" stroke-width=".7" d="M33.647 35.585c.672 0 1.217-.54 1.217-1.208 0-.666-.545-1.207-1.217-1.207s-1.217.54-1.217 1.207.545 1.208 1.217 1.208z"/></g><g><g filter="url(#hzv7bV)"><path fill="none" d="M43.787 39.615c.672 0 1.217-.54 1.217-1.208 0-.666-.545-1.207-1.217-1.207s-1.217.54-1.217 1.207.545 1.208 1.217 1.208z" mask="url(&quot;#hzv7bW&quot;)"/><path fill="#f6f5a6" fill-opacity=".24" d="M43.787 39.615c.672 0 1.217-.54 1.217-1.208 0-.666-.545-1.207-1.217-1.207s-1.217.54-1.217 1.207.545 1.208 1.217 1.208z"/></g><g filter="url(#hzv7bX)"><path fill="none" d="M43.787 39.615c.672 0 1.217-.54 1.217-1.208 0-.666-.545-1.207-1.217-1.207s-1.217.54-1.217 1.207.545 1.208 1.217 1.208z" mask="url(&quot;#hzv7bY&quot;)"/><path fill="#909063" fill-opacity=".24" d="M43.787 39.615c.672 0 1.217-.54 1.217-1.208 0-.666-.545-1.207-1.217-1.207s-1.217.54-1.217 1.207.545 1.208 1.217 1.208z"/></g><path fill="#f6f5a6" d="M43.787 39.615c.672 0 1.217-.54 1.217-1.208 0-.666-.545-1.207-1.217-1.207s-1.217.54-1.217 1.207.545 1.208 1.217 1.208z"/><path fill="none" stroke="#f6f5a6" stroke-miterlimit="50" stroke-width=".7" d="M43.787 39.615c.672 0 1.217-.54 1.217-1.208 0-.666-.545-1.207-1.217-1.207s-1.217.54-1.217 1.207.545 1.208 1.217 1.208z"/></g><g><g filter="url(#hzv7bZ)"><path fill="none" d="M53.927 29.555c.672 0 1.217-.54 1.217-1.208 0-.666-.545-1.207-1.217-1.207s-1.217.54-1.217 1.207.545 1.208 1.217 1.208z" mask="url(&quot;#hzv7ca&quot;)"/><path fill="#f6f5a6" fill-opacity=".24" d="M53.927 29.555c.672 0 1.217-.54 1.217-1.208 0-.666-.545-1.207-1.217-1.207s-1.217.54-1.217 1.207.545 1.208 1.217 1.208z"/></g><g filter="url(#hzv7cb)"><path fill="none" d="M53.927 29.555c.672 0 1.217-.54 1.217-1.208 0-.666-.545-1.207-1.217-1.207s-1.217.54-1.217 1.207.545 1.208 1.217 1.208z" mask="url(&quot;#hzv7cc&quot;)"/><path fill="#909063" fill-opacity=".24" d="M53.927 29.555c.672 0 1.217-.54 1.217-1.208 0-.666-.545-1.207-1.217-1.207s-1.217.54-1.217 1.207.545 1.208 1.217 1.208z"/></g><path fill="#f6f5a6" d="M53.927 29.555c.672 0 1.217-.54 1.217-1.208 0-.666-.545-1.207-1.217-1.207s-1.217.54-1.217 1.207.545 1.208 1.217 1.208z"/><path fill="none" stroke="#f6f5a6" stroke-miterlimit="50" stroke-width=".7" d="M53.927 29.555c.672 0 1.217-.54 1.217-1.208 0-.666-.545-1.207-1.217-1.207s-1.217.54-1.217 1.207.545 1.208 1.217 1.208z"/></g><g><g filter="url(#hzv7cd)"><path fill="none" d="M64.067 51.685c.672 0 1.217-.54 1.217-1.208 0-.666-.545-1.207-1.217-1.207s-1.217.54-1.217 1.207.545 1.208 1.217 1.208z" mask="url(&quot;#hzv7ce&quot;)"/><path fill="#f6f5a6" fill-opacity=".24" d="M64.067 51.685c.672 0 1.217-.54 1.217-1.208 0-.666-.545-1.207-1.217-1.207s-1.217.54-1.217 1.207.545 1.208 1.217 1.208z"/></g><g filter="url(#hzv7cf)"><path fill="none" d="M64.067 51.685c.672 0 1.217-.54 1.217-1.208 0-.666-.545-1.207-1.217-1.207s-1.217.54-1.217 1.207.545 1.208 1.217 1.208z" mask="url(&quot;#hzv7cg&quot;)"/><path fill="#909063" fill-opacity=".24" d="M64.067 51.685c.672 0 1.217-.54 1.217-1.208 0-.666-.545-1.207-1.217-1.207s-1.217.54-1.217 1.207.545 1.208 1.217 1.208z"/></g><path fill="#f6f5a6" d="M64.067 51.685c.672 0 1.217-.54 1.217-1.208 0-.666-.545-1.207-1.217-1.207s-1.217.54-1.217 1.207.545 1.208 1.217 1.208z"/><path fill="none" stroke="#f6f5a6" stroke-miterlimit="50" stroke-width=".7" d="M64.067 51.685c.672 0 1.217-.54 1.217-1.208 0-.666-.545-1.207-1.217-1.207s-1.217.54-1.217 1.207.545 1.208 1.217 1.208z"/></g><g><g filter="url(#hzv7ch)"><path fill="none" d="M74.217 59.735c.672 0 1.217-.54 1.217-1.208 0-.666-.545-1.207-1.217-1.207S73 57.86 73 58.527s.545 1.208 1.217 1.208z" mask="url(&quot;#hzv7ci&quot;)"/><path fill="#f6f5a6" fill-opacity=".24" d="M74.217 59.735c.672 0 1.217-.54 1.217-1.208 0-.666-.545-1.207-1.217-1.207S73 57.86 73 58.527s.545 1.208 1.217 1.208z"/></g><g filter="url(#hzv7cj)"><path fill="none" d="M74.217 59.735c.672 0 1.217-.54 1.217-1.208 0-.666-.545-1.207-1.217-1.207S73 57.86 73 58.527s.545 1.208 1.217 1.208z" mask="url(&quot;#hzv7ck&quot;)"/><path fill="#909063" fill-opacity=".24" d="M74.217 59.735c.672 0 1.217-.54 1.217-1.208 0-.666-.545-1.207-1.217-1.207S73 57.86 73 58.527s.545 1.208 1.217 1.208z"/></g><path fill="#f6f5a6" d="M74.217 59.735c.672 0 1.217-.54 1.217-1.208 0-.666-.545-1.207-1.217-1.207S73 57.86 73 58.527s.545 1.208 1.217 1.208z"/><path fill="none" stroke="#f6f5a6" stroke-miterlimit="50" stroke-width=".7" d="M74.217 59.735c.672 0 1.217-.54 1.217-1.208 0-.666-.545-1.207-1.217-1.207S73 57.86 73 58.527s.545 1.208 1.217 1.208z"/></g><g><g filter="url(#hzv7cl)"><path fill="none" d="M84.357 57.725c.672 0 1.217-.54 1.217-1.208 0-.666-.545-1.207-1.217-1.207s-1.217.54-1.217 1.207.545 1.208 1.217 1.208z" mask="url(&quot;#hzv7cm&quot;)"/><path fill="#f6f5a6" fill-opacity=".24" d="M84.357 57.725c.672 0 1.217-.54 1.217-1.208 0-.666-.545-1.207-1.217-1.207s-1.217.54-1.217 1.207.545 1.208 1.217 1.208z"/></g><g filter="url(#hzv7cn)"><path fill="none" d="M84.357 57.725c.672 0 1.217-.54 1.217-1.208 0-.666-.545-1.207-1.217-1.207s-1.217.54-1.217 1.207.545 1.208 1.217 1.208z" mask="url(&quot;#hzv7co&quot;)"/><path fill="#909063" fill-opacity=".24" d="M84.357 57.725c.672 0 1.217-.54 1.217-1.208 0-.666-.545-1.207-1.217-1.207s-1.217.54-1.217 1.207.545 1.208 1.217 1.208z"/></g><path fill="#f6f5a6" d="M84.357 57.725c.672 0 1.217-.54 1.217-1.208 0-.666-.545-1.207-1.217-1.207s-1.217.54-1.217 1.207.545 1.208 1.217 1.208z"/><path fill="none" stroke="#f6f5a6" stroke-miterlimit="50" stroke-width=".7" d="M84.357 57.725c.672 0 1.217-.54 1.217-1.208 0-.666-.545-1.207-1.217-1.207s-1.217.54-1.217 1.207.545 1.208 1.217 1.208z"/></g><g><g filter="url(#hzv7cp)"><path fill="none" d="M94.497 7.415c.672 0 1.217-.54 1.217-1.208 0-.666-.545-1.207-1.217-1.207s-1.217.54-1.217 1.207.545 1.208 1.217 1.208z" mask="url(&quot;#hzv7cq&quot;)"/><path fill="#f6f5a6" fill-opacity=".24" d="M94.497 7.415c.672 0 1.217-.54 1.217-1.208 0-.666-.545-1.207-1.217-1.207s-1.217.54-1.217 1.207.545 1.208 1.217 1.208z"/></g><g filter="url(#hzv7cr)"><path fill="none" d="M94.497 7.415c.672 0 1.217-.54 1.217-1.208 0-.666-.545-1.207-1.217-1.207s-1.217.54-1.217 1.207.545 1.208 1.217 1.208z" mask="url(&quot;#hzv7cs&quot;)"/><path fill="#909063" fill-opacity=".24" d="M94.497 7.415c.672 0 1.217-.54 1.217-1.208 0-.666-.545-1.207-1.217-1.207s-1.217.54-1.217 1.207.545 1.208 1.217 1.208z"/></g><path fill="#f6f5a6" d="M94.497 7.415c.672 0 1.217-.54 1.217-1.208 0-.666-.545-1.207-1.217-1.207s-1.217.54-1.217 1.207.545 1.208 1.217 1.208z"/><path fill="none" stroke="#f6f5a6" stroke-miterlimit="50" stroke-width=".7" d="M94.497 7.415c.672 0 1.217-.54 1.217-1.208 0-.666-.545-1.207-1.217-1.207s-1.217.54-1.217 1.207.545 1.208 1.217 1.208z"/></g><g><g filter="url(#hzv7ct)"><path fill="none" d="M104.637 33.975c.672 0 1.217-.54 1.217-1.208 0-.666-.545-1.207-1.217-1.207s-1.217.54-1.217 1.207.545 1.208 1.217 1.208z" mask="url(&quot;#hzv7cu&quot;)"/><path fill="#f6f5a6" fill-opacity=".24" d="M104.637 33.975c.672 0 1.217-.54 1.217-1.208 0-.666-.545-1.207-1.217-1.207s-1.217.54-1.217 1.207.545 1.208 1.217 1.208z"/></g><g filter="url(#hzv7cv)"><path fill="none" d="M104.637 33.975c.672 0 1.217-.54 1.217-1.208 0-.666-.545-1.207-1.217-1.207s-1.217.54-1.217 1.207.545 1.208 1.217 1.208z" mask="url(&quot;#hzv7cw&quot;)"/><path fill="#909063" fill-opacity=".24" d="M104.637 33.975c.672 0 1.217-.54 1.217-1.208 0-.666-.545-1.207-1.217-1.207s-1.217.54-1.217 1.207.545 1.208 1.217 1.208z"/></g><path fill="#f6f5a6" d="M104.637 33.975c.672 0 1.217-.54 1.217-1.208 0-.666-.545-1.207-1.217-1.207s-1.217.54-1.217 1.207.545 1.208 1.217 1.208z"/><path fill="none" stroke="#f6f5a6" stroke-miterlimit="50" stroke-width=".7" d="M104.637 33.975c.672 0 1.217-.54 1.217-1.208 0-.666-.545-1.207-1.217-1.207s-1.217.54-1.217 1.207.545 1.208 1.217 1.208z"/></g><g><g filter="url(#hzv7cx)"><path fill="none" d="M114.787 22.305c.672 0 1.217-.54 1.217-1.208 0-.666-.545-1.207-1.217-1.207s-1.217.54-1.217 1.207.545 1.208 1.217 1.208z" mask="url(&quot;#hzv7cy&quot;)"/><path fill="#f6f5a6" fill-opacity=".24" d="M114.787 22.305c.672 0 1.217-.54 1.217-1.208 0-.666-.545-1.207-1.217-1.207s-1.217.54-1.217 1.207.545 1.208 1.217 1.208z"/></g><g filter="url(#hzv7cz)"><path fill="none" d="M114.787 22.305c.672 0 1.217-.54 1.217-1.208 0-.666-.545-1.207-1.217-1.207s-1.217.54-1.217 1.207.545 1.208 1.217 1.208z" mask="url(&quot;#hzv7cA&quot;)"/><path fill="#909063" fill-opacity=".24" d="M114.787 22.305c.672 0 1.217-.54 1.217-1.208 0-.666-.545-1.207-1.217-1.207s-1.217.54-1.217 1.207.545 1.208 1.217 1.208z"/></g><path fill="#f6f5a6" d="M114.787 22.305c.672 0 1.217-.54 1.217-1.208 0-.666-.545-1.207-1.217-1.207s-1.217.54-1.217 1.207.545 1.208 1.217 1.208z"/><path fill="none" stroke="#f6f5a6" stroke-miterlimit="50" stroke-width=".7" d="M114.787 22.305c.672 0 1.217-.54 1.217-1.208 0-.666-.545-1.207-1.217-1.207s-1.217.54-1.217 1.207.545 1.208 1.217 1.208z"/></g></g></g></g></g></g></svg>