<svg xmlns="http://www.w3.org/2000/svg" width="65" height="65" viewBox="0 0 65 65"><defs><clipPath id="qvoia"><path d="M32.5 65C50.45 65 65 50.45 65 32.5S50.45 0 32.5 0 0 14.55 0 32.5 14.55 65 32.5 65z"/></clipPath><clipPath id="qvoib"><path d="M27.21 28.43h18.704v21.572H27.21z"/></clipPath><clipPath id="qvoic"><path d="M16.83 16.27h38.026v16.172H16.83z"/></clipPath><clipPath id="qvoid"><path d="M14 3h45v13.272H14z"/></clipPath><clipPath id="qvoie"><path d="M20.9 11.9h9.506v17.435H20.9z"/></clipPath><clipPath id="qvoif"><path d="M40.35 11.98h9.506v17.435H40.35z"/></clipPath><clipPath id="qvoig"><path d="M17 2h39v11.174H17z"/></clipPath></defs><g><g><g><path fill="#e84f89" fill-opacity=".8" d="M32.5 65C50.45 65 65 50.45 65 32.5S50.45 0 32.5 0 0 14.55 0 32.5 14.55 65 32.5 65z"/></g><g clip-path="url(#qvoia)"><g transform="rotate(-29 21 34.5)"><path fill="#bed23f" d="M4 37.601C4 25.163 14.002 15.08 26.34 15.08c1.644 0 3.246.179 4.79.519C21.091 17.809 13.577 26.82 13.577 37.6c0 10.781 7.514 19.793 17.551 22.003a22.25 22.25 0 0 1-4.789.518C14.002 60.122 4 50.04 4 37.602z"/><path fill="none" stroke="#979797" stroke-miterlimit="50" stroke-width=".78" d="M4 37.601C4 25.163 14.002 15.08 26.34 15.08c1.644 0 3.246.179 4.79.519C21.091 17.809 13.577 26.82 13.577 37.6c0 10.781 7.514 19.793 17.551 22.003a22.25 22.25 0 0 1-4.789.518C14.002 60.122 4 50.04 4 37.602z"/></g><g><path fill="#bed23f" d="M35 61c7.18 0 13-5.82 13-13s-5.82-13-13-13-13 5.82-13 13 5.82 13 13 13z"/><path fill="none" stroke="#979797" stroke-miterlimit="50" stroke-width=".78" d="M35 61c7.18 0 13-5.82 13-13s-5.82-13-13-13-13 5.82-13 13 5.82 13 13 13z"/></g><g><path fill="#bed23f" d="M36.5 21L47 42H26z"/><path fill="none" stroke="#979797" stroke-miterlimit="50" stroke-width=".78" d="M36.5 21v0L47 42v0H26v0z"/></g><g><g><g/><g clip-path="url(#qvoib)"><path fill="#f5efd6" d="M36.46 49.621L46.678 29.35H26.24z"/><path fill="none" stroke="#979797" stroke-miterlimit="50" stroke-width=".78" d="M36.46 49.621v0L46.678 29.35v0H26.24v0z"/></g></g><g><path fill="#f5efd6" d="M29.264 32.58c1.25 0 2.264-1.025 2.264-2.29 0-1.265-1.014-2.29-2.264-2.29C28.014 28 27 29.025 27 30.29c0 1.265 1.014 2.29 2.264 2.29z"/><path fill="none" stroke="#979797" stroke-miterlimit="50" stroke-width=".78" d="M29.264 32.58c1.25 0 2.264-1.025 2.264-2.29 0-1.265-1.014-2.29-2.264-2.29C28.014 28 27 29.025 27 30.29c0 1.265 1.014 2.29 2.264 2.29z"/></g><g><path fill="#f5efd6" d="M43.734 32.58c1.25 0 2.264-1.025 2.264-2.29 0-1.265-1.014-2.29-2.264-2.29-1.25 0-2.264 1.025-2.264 2.29 0 1.265 1.014 2.29 2.264 2.29z"/><path fill="none" stroke="#979797" stroke-miterlimit="50" stroke-width=".78" d="M43.734 32.58c1.25 0 2.264-1.025 2.264-2.29 0-1.265-1.014-2.29-2.264-2.29-1.25 0-2.264 1.025-2.264 2.29 0 1.265 1.014 2.29 2.264 2.29z"/></g></g><g><g><g/><g clip-path="url(#qvoic)"><path fill="#dfdac4" d="M35.136 39.621L53.113 16.42H17.16z"/><path fill="none" stroke="#979797" stroke-miterlimit="50" stroke-width=".78" d="M35.136 39.621v0L53.113 16.42v0H17.16v0z"/></g></g><g><path fill="#dfdac4" d="M35.184 35.002c4.437 0 8.034-3.752 8.034-8.381 0-4.629-3.597-8.381-8.034-8.381-4.437 0-8.034 3.752-8.034 8.381 0 4.629 3.597 8.38 8.034 8.38z"/><path fill="none" stroke="#979797" stroke-miterlimit="50" stroke-width=".78" d="M35.184 35.002c4.437 0 8.034-3.752 8.034-8.381 0-4.629-3.597-8.381-8.034-8.381-4.437 0-8.034 3.752-8.034 8.381 0 4.629 3.597 8.38 8.034 8.38z"/></g><g><g/><g clip-path="url(#qvoid)"><path fill="#dfdac4" d="M35.161 93.79c21.64 0 39.182-18.377 39.182-41.045C74.343 30.076 56.8 11.7 35.16 11.7 13.522 11.7-4.02 30.076-4.02 52.745c0 22.668 17.542 41.044 39.181 41.044z"/><path fill="none" stroke="#979797" stroke-miterlimit="50" stroke-width=".78" d="M35.161 93.79c21.64 0 39.182-18.377 39.182-41.045C74.343 30.076 56.8 11.7 35.16 11.7 13.522 11.7-4.02 30.076-4.02 52.745c0 22.668 17.542 41.044 39.181 41.044z"/></g></g></g><g transform="rotate(-11 42 12)"><g/><g clip-path="url(#qvoie)"><path fill="#dfdac4" d="M43.552 37.584c12.141 0 21.983-9.938 21.983-22.197 0-12.26-9.842-22.197-21.983-22.197-12.14 0-21.982 9.938-21.982 22.197 0 12.259 9.842 22.197 21.982 22.197z"/><path fill="none" stroke="#979797" stroke-miterlimit="50" stroke-width=".78" d="M43.552 37.584c12.141 0 21.983-9.938 21.983-22.197 0-12.26-9.842-22.197-21.983-22.197-12.14 0-21.982 9.938-21.982 22.197 0 12.259 9.842 22.197 21.982 22.197z"/></g></g><g transform="scale(-1 1) rotate(-11 0 324.062)"><g/><g clip-path="url(#qvoif)"><path fill="#dfdac4" d="M62.992 37.664c12.141 0 21.983-9.938 21.983-22.197 0-12.26-9.842-22.197-21.983-22.197-12.14 0-21.982 9.938-21.982 22.197 0 12.259 9.842 22.197 21.982 22.197z"/><path fill="none" stroke="#979797" stroke-miterlimit="50" stroke-width=".78" d="M62.992 37.664c12.141 0 21.983-9.938 21.983-22.197 0-12.26-9.842-22.197-21.983-22.197-12.14 0-21.982 9.938-21.982 22.197 0 12.259 9.842 22.197 21.982 22.197z"/></g></g><g transform="rotate(-19 28.5 7.5)"><g><g><path fill="#d26f46" d="M27.402 12.616c1.714 0 3.103-1.4 3.103-3.128 0-1.728-1.39-3.128-3.103-3.128-1.713 0-3.102 1.4-3.102 3.128 0 1.727 1.389 3.128 3.102 3.128z"/></g><g><path fill="#d26f46" d="M27.415 1.78L30.4 8.64h-5.97z"/></g></g><g><g><path fill="#ef8d6c" d="M27.445 12.566a2.376 2.376 0 0 0 2.375-2.378 2.376 2.376 0 0 0-2.375-2.378 2.376 2.376 0 0 0-2.375 2.378 2.376 2.376 0 0 0 2.375 2.378z"/></g><g><path fill="#bed23f" d="M27.45 4.5l2.289 5.215H25.16z"/></g></g></g><g transform="scale(-1 1) rotate(-19 0 261.47)"><g><g><path fill="#d26f46" d="M42.592 12.626c1.714 0 3.103-1.4 3.103-3.128 0-1.728-1.39-3.128-3.103-3.128-1.713 0-3.102 1.4-3.102 3.128 0 1.727 1.389 3.128 3.102 3.128z"/></g><g><path fill="#d26f46" d="M42.595 1.79l2.985 6.86h-5.97z"/></g></g><g><g><path fill="#ef8d6c" d="M42.635 12.585a2.376 2.376 0 0 0 2.375-2.377 2.376 2.376 0 0 0-2.375-2.378 2.376 2.376 0 0 0-2.375 2.378 2.376 2.376 0 0 0 2.375 2.377z"/></g><g><path fill="#bed23f" d="M42.63 4.51l2.289 5.215H40.34z"/></g></g></g><g><g><g><path fill="#bed23f" d="M35.32 32.833L50.9 13.3H19.74z"/><path fill="none" stroke="#979797" stroke-miterlimit="50" stroke-width=".78" d="M35.32 32.833v0L50.9 13.3v0H19.74v0z"/></g></g><g><g/><g clip-path="url(#qvoig)"><path fill="#d26f46" d="M35.337 78.43c18.754 0 33.957-15.47 33.957-34.555 0-19.084-15.203-34.555-33.957-34.555S1.38 24.791 1.38 43.875c0 19.085 15.203 34.556 33.957 34.556z"/><path fill="none" stroke="#979797" stroke-miterlimit="50" stroke-width=".78" d="M35.337 78.43c18.754 0 33.957-15.47 33.957-34.555 0-19.084-15.203-34.555-33.957-34.555S1.38 24.791 1.38 43.875c0 19.085 15.203 34.556 33.957 34.556z"/></g></g></g><g><path d="M48 22a1 1 0 1 0 0-2 1 1 0 0 0 0 2z"/><path fill="none" stroke="#979797" stroke-miterlimit="50" stroke-width=".65" d="M48 22a1 1 0 1 0 0-2 1 1 0 0 0 0 2z"/></g><g><path d="M25 22a1 1 0 1 0 0-2 1 1 0 0 0 0 2z"/><path fill="none" stroke="#979797" stroke-miterlimit="50" stroke-width=".65" d="M25 22a1 1 0 1 0 0-2 1 1 0 0 0 0 2z"/></g><g><path d="M35.5 37a2.5 2.5 0 1 0 0-5 2.5 2.5 0 0 0 0 5z"/><path fill="none" stroke="#979797" stroke-miterlimit="50" stroke-width=".65" d="M35.5 37a2.5 2.5 0 1 0 0-5 2.5 2.5 0 0 0 0 5z"/></g><g transform="matrix(-1 0 0 1 63 0)"><g><g><path fill="#c66d48" d="M31.487 67.894c2.478 0 4.487-1.924 4.487-4.297 0-2.373-2.01-4.297-4.487-4.297-2.478 0-4.487 1.924-4.487 4.297 0 2.373 2.009 4.297 4.487 4.297z"/></g><g><path fill="#c66d48" d="M31.507 53.01l4.318 9.424H27.19z"/></g></g><g><g><path fill="#ef8d6c" d="M31.545 67.833c1.897 0 3.434-1.463 3.434-3.267 0-1.804-1.537-3.266-3.434-3.266-1.897 0-3.435 1.462-3.435 3.266s1.538 3.267 3.435 3.267z"/></g><g><path fill="#bed23f" d="M31.551 56.75l3.31 7.164H28.24z"/></g></g></g><g transform="matrix(-1 0 0 1 79 0)"><g><g><path fill="#c66d48" d="M39.487 68.894c2.478 0 4.487-1.924 4.487-4.297 0-2.373-2.01-4.297-4.487-4.297-2.478 0-4.487 1.924-4.487 4.297 0 2.373 2.009 4.297 4.487 4.297z"/></g><g><path fill="#c66d48" d="M39.507 54.01l4.318 9.424H35.19z"/></g></g><g><g><path fill="#ef8d6c" d="M39.545 68.833c1.897 0 3.434-1.463 3.434-3.267 0-1.804-1.537-3.266-3.434-3.266-1.897 0-3.435 1.462-3.435 3.266s1.538 3.267 3.435 3.267z"/></g><g><path fill="#bed23f" d="M39.551 57.75l3.31 7.164H36.24z"/></g></g></g></g></g></g></svg>