<svg width="46" height="54" viewBox="0 0 46 54" xmlns="http://www.w3.org/2000/svg" preserveAspectRatio="xMinYMid"><g transform="translate(2 2)" fill="none" fill-rule="evenodd"><circle fill="#9355DE" cx="20.8" cy="33.8" r="3.8"/><path d="M19.732 34h2.036c.404 0 .732.328.732.732v5.536a.732.732 0 01-.732.732h-2.036a.732.732 0 01-.732-.732v-5.536c0-.404.328-.732.732-.732z" fill="#9355DE"/><path d="M1.21 21h39.58c.668 0 1.21.542 1.21 1.21v26.58A1.21 1.21 0 0140.79 50H1.21A1.21 1.21 0 010 48.79V22.21C0 21.542.542 21 1.21 21zM10 20V7.39C10 3.31 13.215 0 17.181 0h7.638C28.785 0 32 3.309 32 7.39v2.922" stroke="#9355DE" stroke-width="3" stroke-linecap="round" stroke-linejoin="round"/></g></svg>